<svg width="200" height="76" viewBox="0 0 133 76" fill="none" xmlns="http://www.w3.org/2000/svg">
<path d="M132.042 41.0964C131.659 40.5441 131.16 40.0786 130.579 39.7312C130.427 39.6463 130.27 39.5688 130.127 39.4713C129.636 39.1067 129.046 38.8928 128.431 38.8568C128.234 38.8465 128.039 38.811 127.851 38.7512C126.869 38.4475 125.844 38.2933 124.814 38.2939C124.53 38.2971 124.255 38.2026 124.035 38.0268C123.415 37.5811 122.708 37.2665 121.957 37.103C121.424 36.9698 120.861 37.0046 120.348 37.2023C120.23 37.2468 120.109 37.2867 119.964 37.3376C119.844 37.1264 119.742 36.9456 119.636 36.7588C119.737 36.6305 119.807 36.5229 119.896 36.4322C120.108 36.2151 120.336 36.0134 120.542 35.7915C120.644 35.7072 120.708 35.5869 120.721 35.4566C120.733 35.3263 120.692 35.1965 120.608 35.0953C120.512 34.9516 120.432 34.7979 120.37 34.637C120.247 34.3728 120.181 34.0865 120.175 33.7961C120.169 33.5056 120.225 33.2171 120.337 32.9484C120.45 32.6267 120.591 32.3153 120.759 32.0178C120.836 31.8964 120.932 31.7565 120.802 31.6044C120.728 31.5835 120.649 31.5859 120.577 31.6112C120.505 31.6366 120.442 31.6836 120.399 31.7457C120.297 31.8729 120.168 31.977 120.022 32.0511C119.875 32.1253 119.714 32.1676 119.55 32.1753C119.463 32.1844 119.379 32.2119 119.293 32.227C118.756 32.3207 118.243 32.3319 117.866 31.8472C117.854 31.8319 117.829 31.8262 117.797 31.8088C117.296 31.8558 116.969 32.3643 116.448 32.3552C116.093 31.9491 116.048 31.949 115.649 32.2285C115.177 32.5755 114.741 32.9683 114.349 33.401C113.861 33.9253 113.514 34.5608 113.34 35.2497C113.284 35.435 113.269 35.63 113.296 35.8216C113.323 36.0132 113.392 36.1968 113.497 36.3601C113.785 36.8909 114.168 37.3665 114.627 37.764C114.688 37.8169 114.745 37.874 114.797 37.935C114.53 38.8779 113.993 39.7259 113.25 40.3784C112.779 40.8015 112.213 41.1097 111.598 41.2778C110.967 41.4475 110.312 41.5323 109.669 41.6622C109.554 41.7023 109.428 41.6974 109.316 41.6483C109.205 41.5992 109.118 41.5098 109.072 41.3989C109.032 41.3224 108.987 41.2486 108.937 41.1781C108.619 40.6349 108.154 40.189 107.592 39.89C107.498 39.8296 107.41 39.7597 107.331 39.6813C107.477 39.5206 107.587 39.3913 107.706 39.271C108.269 38.7016 108.863 38.1583 109.394 37.5614C110.241 36.6085 111.074 35.6406 111.864 34.6418C112.641 33.659 113.379 32.6442 114.092 31.6156C114.523 30.9696 115.005 30.358 115.534 29.7865C116.123 29.054 116.754 28.3546 117.423 27.6918C118.667 26.67 120.066 25.8465 121.571 25.2519C121.954 25.0949 122.347 24.9601 122.747 24.8481C122.992 24.7678 123.253 24.7415 123.509 24.7712C123.766 24.8008 124.013 24.8856 124.233 25.0195C124.167 25.1982 124.121 25.3836 124.097 25.5722C124.104 25.6336 124.124 25.6929 124.155 25.7462C124.187 25.7994 124.23 25.8454 124.282 25.881C124.405 25.9619 124.531 25.8565 124.624 25.7654C124.795 25.575 124.92 25.3485 124.988 25.1032C124.941 25.0308 124.918 24.9613 124.87 24.928C124.359 24.5495 123.721 24.3738 123.084 24.4357C122.283 24.5625 121.508 24.8192 120.793 25.1952C119.464 25.804 118.219 26.5768 117.09 27.495C116.469 27.9695 115.884 28.4882 115.34 29.0468C115.166 29.2374 114.946 29.387 114.761 29.5683C114.487 29.8129 114.232 30.0778 113.999 30.3606C113.289 31.3115 112.605 32.281 111.91 33.2428C111.695 33.54 111.465 33.8275 111.263 34.1328C111.023 34.5902 110.696 34.9984 110.3 35.3352C110.164 35.4441 110.047 35.5749 109.956 35.7219C109.302 36.5556 108.569 37.3256 107.765 38.0212C107.407 38.3654 106.995 38.6557 106.647 39.008C106.539 39.1412 106.404 39.2518 106.251 39.3334C106.099 39.4149 105.931 39.4658 105.758 39.483C105.604 39.4979 105.456 39.552 105.33 39.64C105.204 39.728 105.103 39.8468 105.038 39.9847C104.98 40.0754 104.929 40.1709 104.887 40.27C104.834 40.4112 104.752 40.5402 104.646 40.6492C104.541 40.7582 104.413 40.845 104.272 40.9042C103.706 41.1843 103.149 41.4836 102.577 41.7519C101.979 42.0173 101.355 42.2222 100.714 42.3632C100.096 42.5045 99.462 42.5696 98.8273 42.5569C97.8432 42.5525 96.8575 42.5915 95.8753 42.5492C94.2587 42.4794 92.642 42.3865 91.0297 42.2539C88.6109 42.0551 86.1831 41.9077 83.8154 41.3232C83.7166 41.2987 83.5885 41.312 83.5463 41.136C83.6283 41.0654 83.721 40.9819 83.8176 40.9029C84.4281 40.4115 84.9304 39.8034 85.2937 39.1157C85.694 38.3532 86.1257 37.6065 86.5485 36.8556C86.623 36.7358 86.7037 36.6199 86.7903 36.5082C87.1338 36.5297 87.4657 36.6382 87.7536 36.8232C88.0415 37.0081 88.2755 37.2632 88.4327 37.5634C88.6579 38.0048 88.8581 38.4585 89.0923 38.8949C89.3263 39.3308 89.5698 39.7641 89.843 40.1771C90.0835 40.5246 90.4003 40.8149 90.7702 41.0267C91.1401 41.2385 91.5536 41.3664 91.9805 41.401C93.1282 41.5708 94.2932 41.5982 95.4479 41.4825C95.9963 41.4254 96.0379 41.3884 96.0442 40.7977C96.0509 40.7563 96.0634 40.7159 96.0814 40.6778C96.2685 40.5707 96.4788 40.5083 96.6951 40.4958C97.0572 40.416 97.4158 40.3176 97.7715 40.2128C97.8586 40.1945 97.9355 40.1446 97.9868 40.0732C98.0382 40.0018 98.0602 39.914 98.0486 39.8274C98.0563 39.7527 98.0735 39.6793 98.0996 39.6087C98.6675 39.3997 99.2538 39.2426 99.8512 39.1394C100.057 39.1159 100.239 39.0751 100.308 38.8465C100.329 38.785 100.371 38.7324 100.427 38.697C100.483 38.6615 100.549 38.6454 100.615 38.6511C100.768 38.6427 100.921 38.6439 101.074 38.6385C101.245 38.6324 101.452 38.6776 101.528 38.4741C101.587 38.313 101.447 38.1992 101.342 38.0901C101.312 38.0589 101.284 38.0262 101.252 37.996C100.579 37.2643 99.9457 36.4981 99.3549 35.7007C99.1295 35.3845 98.8462 35.1122 98.5192 34.8977C98.0721 34.6785 97.6595 34.3972 97.2942 34.0626C97.2778 34.0483 97.2593 34.0365 97.2394 34.0274C96.8677 33.7969 96.4228 33.7078 95.9888 33.7771C95.6749 33.8401 95.3483 33.7824 95.0765 33.616C94.8048 33.4495 94.6086 33.187 94.5286 32.8827C94.4926 32.7798 94.4981 32.6673 94.544 32.5682C94.59 32.4692 94.6729 32.3912 94.7757 32.3502C94.9754 32.2633 95.1879 32.2079 95.4053 32.1863C96.4517 32.0725 97.4634 31.7499 98.378 31.2384C98.9801 30.8824 99.4628 30.3612 99.7661 29.7391C99.9052 29.5072 99.8327 29.3448 99.5921 29.2072C99.5006 29.1549 99.3996 29.1186 99.261 29.0562C99.3919 28.8735 99.4996 28.7176 99.6131 28.5659C99.8531 28.2578 100.025 27.9038 100.117 27.5268C100.17 27.2961 100.101 27.19 99.8584 27.0834C99.7835 27.0507 99.7038 27.0285 99.5881 26.9882C99.6929 26.7246 99.7945 26.4901 99.8795 26.2499C100.034 25.9394 100.101 25.5942 100.075 25.2498C100.037 24.9544 100.029 24.656 100.05 24.359C100.072 23.6517 100.039 22.9437 99.9497 22.2414C99.8003 21.5453 99.8857 20.8204 100.193 20.176C100.223 20.0579 100.23 19.9353 100.214 19.8146C99.6915 19.9023 99.5326 19.9229 99.3901 20.0828C99.0537 20.3909 98.649 20.6183 98.2077 20.7469C97.5454 21.0263 96.8812 21.3045 96.2348 21.6171C95.6862 21.8833 95.106 22.0817 94.5075 22.2076C94.3815 22.2331 94.2508 22.2247 94.1292 22.1833C94.0584 22.1546 93.9808 22.1457 93.9051 22.1577C93.8294 22.1697 93.7586 22.202 93.7006 22.2512C93.4934 22.4088 93.2954 22.5778 93.0924 22.7406C92.9825 22.8288 92.8701 22.9139 92.7498 23.0073C92.6476 22.7781 92.5641 22.5906 92.4836 22.4102C92.2713 22.408 92.0644 22.4751 91.8952 22.6008C91.4102 22.8915 90.9569 23.2301 90.5422 23.6113C89.729 24.3547 89.0372 25.1717 88.8329 26.2889C88.8186 26.3519 88.799 26.4135 88.7742 26.4733C88.6212 26.8778 88.5824 27.3153 88.662 27.7397C88.7208 28.0013 88.6936 28.2744 88.5842 28.5199C88.4749 28.7653 88.289 28.9705 88.0534 29.106C87.7237 28.969 87.4405 28.7429 87.2368 28.454C87.2282 28.2238 87.2197 27.9952 87.21 27.7396C87.0359 27.8578 87.0948 28.1094 86.8327 28.1045C86.7704 28.0448 86.689 27.9752 86.6173 27.8968C86.2082 27.4503 85.8067 26.9971 85.3902 26.5575C85.2917 26.4535 85.1288 26.3081 85.0242 26.3277C84.63 26.4021 84.4759 26.1386 84.2947 25.9042C84.0833 25.6307 83.8907 25.3429 83.675 25.073C83.6317 24.9915 83.5611 24.9272 83.4752 24.8906C83.3893 24.8541 83.2932 24.8475 83.2029 24.8722C83.1419 24.9999 83.0731 25.1438 82.9917 25.3142C82.7333 25.1763 82.4892 25.0142 82.2627 24.8302C81.7278 24.4202 81.1541 24.0614 80.5494 23.7589C80.3984 23.6747 80.23 23.6252 80.0567 23.614C79.8834 23.6028 79.7098 23.6302 79.5488 23.6941C79.5405 23.7637 79.5371 23.8338 79.5388 23.9039C79.633 24.7998 79.7509 25.694 79.8196 26.5919C79.8801 27.3847 79.9141 28.1832 79.3519 28.8647C79.2794 28.9611 79.2345 29.0747 79.2218 29.1938C79.2091 29.3129 79.229 29.4332 79.2795 29.5422C79.34 29.7018 79.4263 29.852 79.5004 30.0067C79.6352 30.2176 79.7221 30.4544 79.7553 30.7011C79.5746 30.7647 79.3998 30.8262 79.231 30.8855C79.173 31.5835 79.726 32.0586 79.7859 32.6727C79.6024 32.7823 79.4393 32.8797 79.2787 32.9756C79.3104 33.3671 79.3642 33.7566 79.4397 34.1424C79.511 34.4119 79.633 34.6659 79.7994 34.8914C80.1407 35.3662 80.5804 35.7648 81.0897 36.0613C81.4576 36.2498 81.8422 36.4053 82.2387 36.5257C82.7343 36.7091 83.278 36.7255 83.7842 36.5724C84.078 36.4873 84.3715 36.3984 84.6697 36.3304C84.8205 36.2825 84.9801 36.2669 85.1376 36.2846C85.2951 36.3023 85.4469 36.353 85.5827 36.4331C85.5839 36.4949 85.593 36.5211 85.5836 36.537C84.9606 37.5953 84.3559 38.6648 83.701 39.7037C83.4434 40.0492 83.1512 40.3686 82.8288 40.6569C82.6967 40.8001 82.5253 40.9027 82.3351 40.9524C82.1449 41.002 81.9441 40.9966 81.7569 40.9368C80.9917 40.7602 80.2129 40.6352 79.4355 40.516C78.2691 40.337 77.082 40.3458 75.9154 40.1492C75.0106 39.9968 74.1004 39.8668 73.1878 39.7696C72.9926 39.7499 72.8039 39.6899 72.6342 39.5934C72.4645 39.4969 72.3175 39.3662 72.2031 39.21C71.6713 38.5569 71.0959 37.9393 70.4806 37.3612C70.4261 37.3003 70.3774 37.2345 70.3351 37.1649C70.3499 37.1408 70.3667 37.1179 70.3854 37.0966C70.4787 37.0131 70.6196 36.9472 70.6566 36.8448C70.7119 36.6927 70.5963 36.5698 70.4699 36.4671C69.6426 35.733 68.712 35.1195 67.7065 34.6454C66.7969 34.2665 65.8012 34.1304 64.8205 34.2508C64.172 34.3017 63.5483 34.5178 63.011 34.8777C62.4738 35.2376 62.0417 35.7289 61.7575 36.3028C61.54 36.7164 61.2496 37.0933 60.9749 37.5137C60.223 37.3582 59.4855 37.2469 58.7736 37.0481C57.8481 36.7897 56.943 36.4616 56.0291 36.1639C55.4914 35.9888 54.9586 35.8125 54.4347 35.5885C53.3507 35.1211 52.2026 34.8123 51.0272 34.672C50.2681 34.583 49.5126 34.4577 48.7595 34.327C47.5538 34.1177 46.3508 33.894 45.1479 33.6699C43.6222 33.3857 42.0974 33.0972 40.5734 32.8043C40.4028 32.7609 40.2351 32.7071 40.0713 32.6433C40.097 32.5738 40.1324 32.508 40.1765 32.4478C40.8898 31.7753 41.4115 30.9317 41.6899 30.0005C41.8475 29.5136 42.0355 29.0363 42.2125 28.5468C42.3333 28.5754 42.4456 28.6316 42.5401 28.7108C42.6346 28.7899 42.7086 28.8899 42.7562 29.0025C43.0127 29.4754 43.2674 29.9499 43.5423 30.4126C44.2162 31.4451 45.0677 32.3551 46.0589 33.102C46.1937 33.2113 46.346 33.2981 46.5096 33.359C47.4808 33.6923 48.4909 33.9043 49.5162 33.99C49.7123 34.0043 49.9095 33.9951 50.1033 33.9626C50.6235 33.8949 51.1411 33.8086 51.6614 33.7412C52.4461 33.6561 53.2095 33.4368 53.917 33.0934C54.6499 32.7549 55.3485 32.3492 56.0035 31.8818C56.3991 31.5771 56.795 31.2726 57.1826 30.9583C57.3454 30.8535 57.4811 30.7131 57.5791 30.5481C57.6304 30.3219 57.6484 30.0898 57.6325 29.8586C57.9113 29.6078 58.2342 29.3214 58.5523 29.0299C58.7505 28.862 58.9362 28.6804 59.1078 28.4864C59.1716 28.4254 59.2112 28.3441 59.2196 28.2571C59.2279 28.1701 59.2045 28.083 59.1534 28.0114C59.0934 27.9319 59.0397 27.8477 59.007 27.8004C59.3011 27.3531 59.6814 26.9664 60.1265 26.6618C60.2981 26.529 60.4578 26.3818 60.6037 26.2221C60.6699 26.1246 60.7234 26.0195 60.7631 25.9092C60.544 25.8632 60.3794 25.8349 60.2184 25.7929C60.1863 25.7854 60.1561 25.7714 60.13 25.7516C60.1038 25.7319 60.0821 25.7069 60.0665 25.6784C60.0508 25.6499 60.0415 25.6185 60.0391 25.5862C60.0367 25.5539 60.0413 25.5214 60.0526 25.491C60.1718 25.1895 60.3613 24.9195 60.606 24.7027C60.791 24.5205 60.99 24.3509 61.1637 24.1591C61.2341 24.0561 61.2904 23.9445 61.3312 23.8272C61.1483 23.7266 61.0037 23.647 60.8261 23.5493C60.9376 23.2615 61.0174 22.9937 61.1409 22.747C61.6998 21.63 62.2454 20.5039 63.0987 19.5598C63.1613 19.5034 63.2022 19.4275 63.2143 19.3449C63.2264 19.2623 63.209 19.1782 63.165 19.1068C63.0425 19.1 62.8961 19.0838 62.7497 19.085C61.6363 19.0947 60.5166 18.9948 59.4174 19.2641C59.3741 19.2715 59.3297 19.2693 59.2873 19.2576C59.2455 19.2448 59.2048 19.2285 59.1658 19.2088C59.0749 19.0462 58.9821 18.8799 58.907 18.7456C58.2294 18.4926 57.6731 18.8444 57.0509 18.9882C57.023 18.8099 56.9981 18.6525 56.9722 18.4874C56.9024 18.475 56.8313 18.4721 56.7608 18.4787C55.7798 18.7433 54.8335 19.0649 54.2332 19.9588C54.144 20.0809 54.042 20.1936 53.9289 20.2948C53.8522 20.3714 53.7648 20.4368 53.6693 20.4891C53.5847 20.5395 53.4895 20.5702 53.391 20.579C53.2925 20.5879 53.1932 20.5745 53.1007 20.5399C53.0083 20.5054 52.9251 20.4506 52.8575 20.3797C52.7899 20.3089 52.7397 20.2238 52.7108 20.131C52.6308 19.9304 52.6031 19.7134 52.63 19.4997C52.6569 19.2859 52.7377 19.0821 52.8651 18.9067C53.38 18.1313 54.0458 17.4632 54.8244 16.9406C55.3396 16.5751 55.7821 16.1202 56.1301 15.5983C56.5109 15.0438 56.7478 14.4064 56.8201 13.7416C56.8509 13.6378 56.8552 13.5281 56.8324 13.4222C56.8097 13.3164 56.7607 13.2177 56.6897 13.1349C56.5941 13.0457 56.5296 12.9291 56.5057 12.8019C56.4818 12.6746 56.4996 12.5432 56.5566 12.4264C56.6294 12.1575 56.7288 11.8954 56.8041 11.6271C56.8756 11.4001 56.8743 11.1572 56.8005 10.931C56.7201 10.696 56.4562 10.6841 56.3104 10.5025C56.2298 9.99837 56.2299 9.48505 56.3104 8.98096C56.4126 8.49297 56.3582 8.45626 55.8696 8.56657C55.8038 8.56524 55.7388 8.55245 55.6776 8.5288C55.6912 8.17054 55.7019 7.82875 55.7175 7.48711C55.7432 6.92996 55.7779 6.373 55.7971 5.81559C55.8052 5.57927 55.8061 5.3404 55.5009 5.23834C55.4552 5.21351 55.415 5.1801 55.3825 5.14001C55.3499 5.09992 55.3258 5.05394 55.3114 5.00469C55.2359 4.78139 55.1846 4.54987 55.1309 4.32002C54.985 3.49578 54.7623 2.68639 54.4657 1.90202C54.3637 1.61936 54.2889 1.32793 54.2425 1.03156C54.1862 0.780528 54.1627 0.521167 54.0903 0.275247C54.0046 -0.0160898 53.786 -0.0760987 53.5392 0.0949701C53.2309 0.334236 52.9069 0.553385 52.5693 0.751012C52.1821 0.950142 51.8157 1.18585 51.4751 1.45477C50.9945 1.79121 50.4891 2.09207 49.9629 2.35484C49.7419 2.50066 49.474 2.56176 49.2101 2.52653C49.0907 2.50809 48.9686 2.51565 48.8525 2.54866C48.7364 2.58167 48.6291 2.63934 48.5383 2.71756C48.2958 2.89968 48.0494 3.07757 47.8179 3.2724C47.5532 3.49529 47.303 3.73468 47.032 3.98004C46.3889 3.75058 45.9261 4.05167 45.5291 4.49462C45.2988 4.75172 45.1013 5.03697 44.8849 5.30625C44.7673 5.45275 44.7032 5.65368 44.4839 5.70533C44.3711 5.52593 44.2607 5.35037 44.1455 5.16729C43.8886 5.26183 43.6603 5.41875 43.4821 5.62337C43.2986 5.80757 43.1253 6.00118 42.9628 6.20337C42.8116 6.38716 42.673 6.58052 42.5477 6.78217C42.4131 7.00279 42.3012 7.23699 42.1849 7.46792C42.0724 7.69137 41.9671 7.9181 41.8251 8.21287C41.7545 8.02838 41.6741 7.84765 41.5842 7.67142C41.511 7.58368 41.4261 7.50596 41.3319 7.44032C40.9454 7.895 40.652 8.41849 40.4676 8.98214C40.2129 9.6769 40.2291 10.4395 40.5131 11.1233C40.6152 11.3606 40.7238 11.5963 40.8077 11.8398C40.9265 12.1846 41.0356 12.5333 41.1275 12.8858C41.1691 13.0305 41.1749 13.1828 41.1443 13.3301C41.0202 13.8804 40.7136 14.3749 40.2725 14.7363C40.1794 14.8205 40.068 14.8828 39.9467 14.9183C39.8253 14.9539 39.6973 14.9618 39.5724 14.9414C39.4475 14.9211 39.329 14.873 39.2259 14.8009C39.1228 14.7288 39.0378 14.6346 38.9775 14.5254C38.8329 14.2614 38.7025 13.9902 38.5869 13.7128C38.5144 13.559 38.4799 13.3628 38.2912 13.3095C38.0005 13.2273 37.8952 12.9982 37.7706 12.7698C37.6579 12.5625 37.5336 12.3615 37.398 12.1677C37.3403 12.0881 37.26 12.0268 37.1672 11.9914C37.0743 11.9559 36.9729 11.9478 36.8755 11.9682C36.792 11.9857 36.7109 12.013 36.634 12.0494C36.1788 11.4791 35.7733 10.9478 35.3415 10.4378C35.0312 10.0712 34.7856 10.108 34.5299 10.524C34.4418 10.667 34.3628 10.8154 34.2522 11.0093C34.0976 10.8547 33.9683 10.7443 33.862 10.6156C33.4616 10.1056 32.9979 9.64668 32.4816 9.24939C32.0788 8.95427 31.6749 8.66072 31.2698 8.36875C31.0234 8.19151 30.8797 8.2442 30.7993 8.53751C30.7766 8.6203 30.7673 8.70658 30.746 8.78977C30.4707 9.86895 30.1942 10.9479 29.9103 12.0576C29.7679 12.0534 29.6294 12.1031 29.5234 12.1963C29.4175 12.2896 29.3522 12.4193 29.3412 12.5586C29.3008 12.7469 29.248 12.9337 29.2219 13.1239C29.1314 13.7833 29.0588 14.4451 28.961 15.1034C28.9472 15.4031 28.8944 15.6999 28.8041 15.9866C28.589 15.9836 28.3981 15.981 28.1805 15.978C28.143 16.1055 28.1162 16.2357 28.1005 16.3675C28.0755 17.0748 28.1049 17.783 28.1884 18.486C28.2705 18.9532 28.2966 19.4281 28.2661 19.9012C28.0624 19.9381 27.8771 19.9717 27.6977 20.0042C27.6669 20.0711 27.6473 20.1423 27.6395 20.2153C27.6664 20.5997 27.721 20.9818 27.8028 21.3587C27.9826 22.0213 28.2144 22.6703 28.4247 23.3248C28.4904 23.5291 28.5602 23.7321 28.6203 23.9378C28.6295 23.9693 28.5963 24.0127 28.5817 24.0537C28.4232 24.1481 28.174 24.0592 28.0554 24.3295C28.115 24.5797 28.1657 24.8755 28.2593 25.1576C28.3345 25.3592 28.4324 25.5519 28.5512 25.7322C28.9785 26.4311 29.4148 27.1246 29.8441 27.8223C29.8696 27.8821 29.8868 27.945 29.8951 28.0093C29.7845 28.1158 29.679 28.2175 29.5413 28.3503C29.6085 28.5045 29.6884 28.653 29.7804 28.7944C30.1751 29.2812 30.625 29.7224 31.1214 30.1094C31.5994 30.4917 32.1836 30.7239 32.7981 30.7759C33.4285 30.853 34.0678 30.8215 34.6871 30.683C35.1971 30.5624 35.6989 30.4106 36.1895 30.2284C36.9842 29.9164 37.6972 29.4332 38.2758 28.8145C38.6275 28.4623 38.9898 28.1204 39.3454 27.772C39.7637 27.3621 40.3193 27.3117 40.8565 27.2275C40.9059 27.2221 40.9559 27.2277 41.0027 27.2439C41.0495 27.2601 41.092 27.2865 41.127 27.3211C41.162 27.3556 41.1886 27.3975 41.2048 27.4436C41.221 27.4896 41.2263 27.5387 41.2205 27.587C41.1834 27.8409 41.1232 28.091 41.0407 28.3344C40.9221 28.6793 40.7708 29.0132 40.6376 29.3535C40.6077 29.4674 40.554 29.574 40.4799 29.6665C40.4058 29.7591 40.3129 29.8356 40.2072 29.8911C40.0793 29.9723 39.9813 30.0916 39.9275 30.2315C39.8192 30.4636 39.751 30.7136 39.6575 30.9528C39.6218 31.0738 39.5638 31.1874 39.4865 31.288C38.8133 32.0033 38.0241 32.4063 36.99 32.1977C35.8332 31.9643 34.6734 31.7434 33.5103 31.5427C32.1098 31.3009 30.7057 31.0774 29.3004 30.8627C28.4582 30.734 27.614 30.5895 26.7652 30.5361C24.9331 30.4096 23.0946 30.3965 21.2609 30.497C20.5404 30.5409 19.8202 30.5889 19.1003 30.641C18.5989 30.6779 18.0987 30.7278 17.5979 30.771C17.3146 30.7955 17.0314 30.819 16.748 30.8415C15.9633 30.9037 15.1785 30.9673 14.3934 31.025C14.3198 31.0449 14.2422 31.0457 14.1683 31.0273C14.0943 31.0089 14.0264 30.972 13.9713 30.9201C14.0307 30.8498 14.0949 30.7835 14.1635 30.7218C14.6779 30.3241 15.2025 29.9386 15.7093 29.5316C16.0814 29.2328 16.4173 28.8902 16.7934 28.5967C18.3278 27.3426 19.5877 25.7971 20.4973 24.0531C20.5559 23.9378 20.6058 23.8184 20.6467 23.696C20.7756 23.354 20.908 23.013 21.0261 22.6673C21.1052 22.4449 21.1685 22.2174 21.2156 21.9865C21.2995 21.5436 21.3544 21.0954 21.4367 20.6522C21.6077 19.7432 21.643 18.8146 21.5413 17.8957C21.4116 16.5134 20.7524 15.2307 19.6964 14.3064C18.9012 13.6622 17.9823 13.1808 16.9942 12.8909C16.579 12.7515 16.1424 12.6838 15.7037 12.6907C14.4218 12.667 13.1717 13.0827 12.1689 13.8662C11.8805 14.0961 11.5883 14.3229 11.2848 14.533C10.9463 14.7717 10.6554 15.0694 10.4268 15.4114C10.0603 15.9457 9.71067 16.4911 9.35619 17.0332C9.17779 17.305 9.07127 17.6161 9.04624 17.9383C9.00737 18.6263 9.13783 19.3133 9.42662 19.9413C9.6989 20.6065 10.2231 21.1424 10.8894 21.4369C11.108 21.5319 11.3432 21.5845 11.5821 21.5918C12.1905 21.6194 12.6085 21.259 12.9562 20.8344C13.1056 20.6334 13.2004 20.3984 13.2318 20.1515C13.2631 19.9047 13.2299 19.6541 13.1354 19.4233C13.0873 19.2908 12.992 19.1799 12.867 19.111C12.7421 19.042 12.5959 19.0198 12.4555 19.0483C12.3413 19.0875 12.2425 19.1608 12.173 19.258C12.1034 19.3551 12.0666 19.4711 12.0677 19.5898C12.0805 19.6965 12.1288 19.7961 12.2052 19.8731C12.2815 19.9502 12.3816 20.0004 12.49 20.0161C12.5543 20.0312 12.6373 19.9699 12.7191 19.9411C12.6271 19.7793 12.5583 19.6586 12.489 19.5369C12.7121 19.405 12.8253 19.4854 12.8721 19.654C12.9479 19.8579 12.956 20.08 12.8953 20.2887C12.8346 20.4974 12.7083 20.6819 12.5343 20.816C12.1453 21.1262 11.732 21.333 11.2101 21.1431C10.7515 20.9894 10.3552 20.6957 10.0791 20.3052C9.74968 19.8225 9.53666 19.2725 9.45616 18.6971C9.33909 18.0777 9.47365 17.4379 9.83109 16.9145C10.0976 16.5214 10.3534 16.1212 10.6268 15.7329C11.1838 14.9859 11.9016 14.3683 12.7294 13.9241C13.3485 13.6004 14.012 13.3663 14.6995 13.2289C15.167 13.1041 15.6619 13.1184 16.1212 13.2697C16.741 13.4794 17.3621 13.6883 17.9696 13.9292C18.2098 14.0313 18.4303 14.1732 18.6214 14.3488C19.4101 15.035 20.0293 15.8882 20.4319 16.8439C20.8041 17.6519 20.9237 18.5499 20.7757 19.4246C20.6931 19.8452 20.6526 20.2738 20.5784 20.6963C20.4932 21.1816 20.424 21.6729 20.2906 22.1462C20.0062 23.0749 19.526 23.9346 18.8813 24.6698C18.3004 25.3674 17.7011 26.0504 17.1225 26.7497C16.666 27.2987 16.1609 27.807 15.613 28.2686C14.9847 28.801 14.3555 29.3327 13.7161 29.8523C13.2583 30.2208 12.7378 30.5072 12.1785 30.6985C11.8467 30.8074 11.5227 30.938 11.2087 31.0893C10.9947 31.1964 10.7605 31.2592 10.5207 31.2737C8.62378 31.4346 6.71496 31.402 4.82489 31.1766C3.45361 31.035 2.09871 30.7689 0.777617 30.3816C0.715389 30.3616 0.651045 30.3477 0.587522 30.3314C0.512506 30.3134 0.433772 30.3172 0.360911 30.3423C0.28805 30.3674 0.224205 30.4128 0.177155 30.4728C0.117229 30.5358 0.0707461 30.6098 0.0404436 30.6906C0.0101411 30.7714 -0.00336789 30.8574 0.00071058 30.9434C0.00751321 31.2849 0.00935977 31.6266 0.0132802 31.9734C0.166529 32.1295 0.361984 32.2396 0.576735 32.2907C1.22651 32.4813 1.86985 32.6987 2.52851 32.8532C3.78487 33.1558 5.08299 33.2562 6.37219 33.1507C7.15639 33.0831 7.94086 33.0177 8.7258 32.9593C10.471 32.8294 12.2169 32.7099 13.9616 32.5755C15.1165 32.4866 16.2615 32.2898 17.425 32.2859C17.861 32.2846 18.2966 32.2264 18.7327 32.2006C19.6057 32.1491 20.479 32.1026 21.352 32.053C21.5709 32.0378 21.7889 32.0935 21.9723 32.2116C22.6699 32.6559 23.279 33.2211 23.77 33.8795C24.3867 34.7389 24.9331 35.6448 25.4042 36.5887C25.5996 36.9465 25.7698 37.3172 25.9135 37.6979C26.0356 38.0637 26.1384 38.4354 26.2214 38.8116C26.5067 39.98 26.7079 41.1667 26.8236 42.3628C26.8425 42.5121 26.8441 42.663 26.8284 42.8126C26.8105 42.89 26.7753 42.9625 26.7255 43.025C26.6756 43.0875 26.6123 43.1384 26.54 43.174C26.4678 43.2097 26.3883 43.2292 26.3075 43.2312C26.2266 43.2332 26.1462 43.2177 26.0722 43.1856C25.7897 43.0228 25.5176 42.8429 25.2576 42.6472C24.3222 41.9324 23.5577 41.0253 23.0179 39.9897C22.4221 38.9085 21.5683 37.9849 20.5294 37.2977C19.9369 36.8833 19.2327 36.6497 18.5053 36.6263C17.3372 36.5757 16.1807 36.8724 15.1875 37.4776C14.0587 38.137 13.0395 38.9622 12.1656 39.9244C11.7517 40.3716 11.449 40.9067 11.2815 41.4879C11.1923 41.8173 11.2931 41.9492 11.6369 42.0458C11.7283 42.0714 11.865 42.0192 11.8964 42.204C11.8434 42.2743 11.7854 42.3632 11.7155 42.442C11.2563 42.9594 10.7786 43.462 10.339 43.9949C10.0377 44.3601 9.78321 44.7631 9.51871 45.1562C9.44863 45.2651 9.39898 45.3854 9.37212 45.5114C9.35703 45.5686 9.35364 45.6282 9.36214 45.6868C9.37064 45.7453 9.39086 45.8016 9.42164 45.8524C9.45243 45.9033 9.49317 45.9476 9.54151 45.983C9.58985 46.0183 9.64484 46.0439 9.70331 46.0583C9.81528 46.0956 9.97524 46.029 10.0242 46.2089C9.52411 46.9345 9.01584 47.658 8.52447 48.3923C8.34598 48.6624 8.18817 48.945 8.05236 49.238C7.86988 49.6268 7.90817 49.6915 8.33202 49.9203C8.36445 49.9378 8.37842 49.9879 8.4147 50.044C8.17827 50.5685 7.88321 51.0656 7.53494 51.5263C6.79601 52.4582 6.14314 53.4529 5.58405 54.4984C5.49471 54.6944 5.37859 54.8776 5.23889 55.043C5.08623 55.1813 4.91978 55.3043 4.74207 55.41C4.71824 55.6344 4.69665 55.838 4.67376 56.054C4.90425 56.2525 5.19316 56.3739 5.49867 56.4007C5.64675 56.4318 5.8002 56.4285 5.94678 56.3912C6.91113 56.0478 7.91942 56.0336 8.92355 55.9796C9.0965 55.9767 9.26862 55.9553 9.43686 55.9158C10.026 55.753 10.6098 55.5721 11.1976 55.4048C11.3142 55.3716 11.4463 55.2902 11.5743 55.4573C11.5271 55.5445 11.4845 55.634 11.4465 55.7254C11.3481 55.9939 11.4457 56.1461 11.7296 56.1553C11.8596 56.1657 11.9904 56.1511 12.1147 56.1123C12.93 55.8597 13.6903 55.4607 14.3569 54.9356C14.6396 54.6992 14.952 54.4993 15.2865 54.3407C15.5393 54.2095 15.818 54.1334 16.1036 54.1178C16.3891 54.1022 16.6748 54.1474 16.9408 54.2503C16.9968 54.2807 17.0478 54.3193 17.0922 54.3645C17.0467 54.4888 17.0039 54.6057 16.9509 54.7508C17.1287 54.843 17.2725 54.9878 17.3618 55.1646C17.4511 55.3414 17.4815 55.5412 17.4486 55.7359C17.3923 56.4023 17.1457 57.0398 16.737 57.5751C16.4017 57.9708 16.0995 58.3923 15.8334 58.8357C15.4824 59.3822 15.2599 59.9984 15.1821 60.6396C15.0922 61.6206 15.5018 62.485 15.8334 63.3672C15.8549 63.4027 15.8835 63.4336 15.9175 63.458C15.9514 63.4824 15.99 63.4999 16.031 63.5094C16.1326 63.5243 16.2357 63.527 16.3379 63.5174C16.3777 64.5207 16.4367 65.4806 16.8847 66.3254C17.2446 66.4483 17.3103 66.0128 17.6208 66.0329C17.6437 66.2867 17.6806 66.5184 17.6823 66.7504C17.7112 67.3322 17.8924 67.8969 18.2085 68.3901C18.3605 68.6568 18.4918 68.6942 18.8006 68.5961C18.9189 68.5586 19.0406 68.5309 19.1816 68.4932C19.2907 68.8287 19.3618 69.175 19.3936 69.5257C19.4754 69.8811 19.5323 70.2443 19.6455 70.5898C19.7729 70.9785 19.9487 71.0574 20.3454 70.9789C20.4307 70.962 20.5114 70.9227 20.5967 70.9047C20.9159 70.8374 21.0501 70.8969 21.1636 71.1821C21.251 71.4015 21.3033 71.6343 21.39 71.854C21.5397 72.2335 21.6926 72.6126 21.8667 72.9818C21.9018 73.0851 21.9697 73.1747 22.0604 73.2376C22.1512 73.3005 22.26 73.3333 22.371 73.3313C22.5131 73.3341 22.6532 73.3646 22.7831 73.421C22.913 73.4774 23.0302 73.5586 23.1278 73.6599C23.7572 74.1321 24.2957 74.7107 24.7181 75.3683C24.8398 75.5689 24.9417 75.7804 25.0226 76C25.2399 75.1855 25.7973 74.6358 26.251 74.0477C26.455 74.074 26.6036 74.0932 26.7896 74.1171C27.1289 73.6414 27.4669 73.1676 27.8036 72.6955C27.8913 72.5727 27.9516 72.3915 28.0714 72.3379C28.4129 72.1851 28.5017 71.8724 28.6527 71.5929C28.8166 71.2897 28.9987 70.9953 29.1485 70.6858C29.214 70.5317 29.3142 70.3942 29.4417 70.2836C29.5692 70.173 29.7207 70.0923 29.8846 70.0474C29.9474 69.8725 29.9947 69.7299 30.0493 69.5899C30.3287 68.8213 30.6763 68.0782 31.088 67.3691C31.1527 67.2632 31.238 67.1075 31.3331 67.0922C31.6985 67.0339 31.7862 66.77 31.8281 66.4929C31.9115 65.9421 31.9616 65.3865 32.0274 64.8331C32.0442 64.6912 32.0681 64.55 32.0922 64.385C32.2577 64.4801 32.381 64.551 32.521 64.6315C32.5881 64.5394 32.6631 64.4782 32.6829 64.403C32.9007 63.705 33.0451 62.9871 33.1136 62.2603C33.1395 61.7463 33.1127 61.2358 33.0926 60.7233C33.0965 60.1416 32.9505 59.5684 32.6682 59.0568C32.4469 58.6869 32.2451 58.3056 32.0233 57.936C31.7238 57.4603 31.5048 56.9403 31.3746 56.396C31.3229 56.1449 31.3086 55.8877 31.3321 55.6325C31.4159 54.6283 32.8304 54.2568 33.4146 54.464C33.724 54.5716 34.0189 54.7155 34.2931 54.8924C34.8199 55.2383 35.3141 55.6315 35.8382 55.9815C36.183 56.2087 36.5421 56.4145 36.9132 56.5977C37.1572 56.7199 37.3385 56.6131 37.4006 56.3509C37.433 56.2144 37.4483 56.074 37.4807 55.8779C37.6529 55.987 37.7743 56.0682 37.8999 56.1427C38.199 56.3199 38.4915 56.5111 38.8036 56.6632C39.0204 56.7652 39.2501 56.8382 39.4866 56.8803C39.7729 56.9344 39.9462 56.769 39.9411 56.4847C39.9377 56.2981 39.9263 56.1116 39.9166 55.8788C40.1338 55.9173 40.3021 55.9469 40.4703 55.9772C40.7497 56.0277 41.0271 56.0965 41.3088 56.1245C41.4384 56.1549 41.5746 56.1421 41.696 56.0883C41.8174 56.0345 41.9172 55.9426 41.9796 55.8271C42.0313 55.732 42.104 55.6494 42.1923 55.5851C42.2806 55.5209 42.3824 55.4767 42.4902 55.4558C42.7636 55.382 43.0423 55.3246 43.3214 55.275C43.7341 55.2289 44.1438 55.1597 44.5484 55.0678C45.2793 54.8494 45.9934 54.5765 46.7134 54.3234C46.7437 54.311 46.7708 54.2922 46.7929 54.2685C46.8151 54.2447 46.8316 54.2165 46.8415 54.1858C46.8513 54.1551 46.8543 54.1226 46.85 54.0907C46.8458 54.0588 46.8345 54.0282 46.817 54.001C46.7593 53.9106 46.6874 53.8289 46.6214 53.7436C46.2598 53.3117 45.9704 52.8264 45.7639 52.3056C45.6195 51.9711 45.4237 51.6602 45.1833 51.3838C44.7524 50.818 44.3792 50.2096 43.9898 49.614C43.9123 49.5091 43.863 49.3867 43.8465 49.2582C43.7966 48.8929 43.6011 48.5618 43.3029 48.3375C42.9809 48.0163 42.6563 47.6971 42.3481 47.3634C42.1559 47.2001 42.0322 46.9727 42.0007 46.7252C42.0478 46.6832 42.1083 46.6265 42.1717 46.5731C42.4576 46.3325 42.4989 46.2126 42.325 45.9204C42.1879 45.6767 42.0225 45.4493 41.8321 45.2429C41.5568 44.9679 41.2639 44.7104 40.955 44.4722C40.7084 44.303 40.5196 44.0648 40.413 43.7888C40.6169 43.7993 40.7602 43.8057 40.9033 43.8141C40.9838 43.8343 41.0689 43.8272 41.1448 43.7939C41.2206 43.7607 41.2827 43.7032 41.321 43.6308C41.2784 43.5458 41.2266 43.4656 41.1666 43.3914C40.6081 42.8193 40.0747 42.2186 39.4741 41.6919C38.7575 41.0271 37.9435 40.4712 37.059 40.0428C36.4833 39.7828 35.9034 39.5317 35.3194 39.2895C34.8358 39.0857 34.3185 38.9695 33.7926 38.9466C32.7363 38.9017 31.7479 39.0513 30.8935 39.7357C30.6602 39.8934 30.4669 40.1015 30.3284 40.3439C30.1057 40.8089 29.8991 41.2812 29.6773 41.7466C29.5396 42.0605 29.3821 42.3657 29.2057 42.6605C29.0973 42.8308 28.9334 42.9602 28.7407 43.0277C28.5479 43.0953 28.3376 43.097 28.1437 43.0326C28.1207 42.8617 28.095 42.6968 28.0769 42.5311C28.0119 41.9344 27.9953 41.3286 27.8777 40.7422C27.511 38.7537 26.854 36.8275 25.9272 35.0228C25.6044 34.3885 25.1863 33.8055 24.6867 33.2933C24.3952 33.0036 24.0916 32.7252 23.8051 32.4307C23.6959 32.3186 23.5342 32.2212 23.5468 31.9828C23.7662 31.9797 23.9603 31.9621 24.1518 31.9767C25.2204 32.0578 26.2905 32.1272 27.3561 32.2374C29.0745 32.4152 30.7922 32.6044 32.506 32.8212C34.1983 33.0352 35.8741 33.3537 37.5478 33.678C37.6781 33.6925 37.8047 33.7295 37.9219 33.7873C38.4939 34.1024 39.0106 34.5055 39.4525 34.9812C40.0222 35.6577 40.6002 36.3299 41.1275 37.0378C41.629 37.7113 42.0743 38.4253 42.5362 39.1267C43.1836 40.1464 43.7643 41.2055 44.2748 42.2975C44.8317 43.4388 45.3146 44.6152 45.8153 45.7823C46.1206 46.4938 46.413 47.2113 46.6856 47.9354C47.1868 49.2669 47.4885 50.6552 47.8576 52.024C48.1541 53.1232 48.4393 54.2254 48.7134 55.3306C48.9892 56.4342 49.2872 57.5345 49.5056 58.6493C49.8358 60.2927 50.0178 61.9613 50.0495 63.6359C50.0861 64.7532 49.9132 65.8675 49.5392 66.9234C49.457 67.145 49.403 67.377 49.3163 67.5968C49.2083 67.9226 49.0699 68.238 48.903 68.539C48.49 69.2985 47.8978 69.9502 47.1759 70.4398C46.8825 70.626 46.554 70.7526 46.2098 70.8121C45.8656 70.8716 45.5127 70.8628 45.1721 70.7861C44.9136 70.743 44.6669 70.648 44.4475 70.5072C44.2281 70.3663 44.0406 70.1826 43.8969 69.9676C43.4762 69.3128 43.1662 68.5957 42.9788 67.8439C42.877 67.3776 42.9317 66.8914 43.1348 66.4581C43.1687 66.3667 43.2219 66.2834 43.291 66.2138C43.3602 66.1441 43.4436 66.0896 43.5358 66.0539C43.5947 66.0236 43.663 66.0158 43.7275 66.0321C43.7919 66.0483 43.848 66.0873 43.8848 66.1417C43.9833 66.2799 44.0589 66.4338 44.1535 66.5749C44.1696 66.588 44.1886 66.5971 44.209 66.6014C44.2294 66.6057 44.2506 66.605 44.2707 66.5996C44.3044 66.5889 44.3514 66.5415 44.35 66.5122C44.3434 66.3408 44.2956 66.1732 44.2106 66.0233C44.1256 65.8733 44.0057 65.7451 43.8608 65.6491C43.7694 65.5854 43.6582 65.555 43.5464 65.563C43.4346 65.571 43.3291 65.617 43.2481 65.693C43.0659 65.8447 42.914 66.0284 42.8003 66.2346C42.556 66.6974 42.4737 67.2263 42.5664 67.7396C42.7539 68.7362 43.1807 69.6747 43.8114 70.4775C43.9915 70.7248 44.2544 70.9022 44.5542 70.9787C44.9581 71.072 45.3672 71.1477 45.7777 71.2066C46.084 71.2424 46.3943 71.1925 46.6729 71.0627C47.463 70.7359 48.1486 70.2061 48.6573 69.5291C49.2133 68.7569 49.6284 67.8958 49.8842 66.9844C50.2685 65.8184 50.4364 64.5943 50.3801 63.3702C50.3423 62.7499 50.3215 62.127 50.2451 61.5111C50.1131 60.4462 49.9946 59.3759 49.778 58.3262C49.4703 56.8348 49.0927 55.3566 48.7199 53.8789C48.3311 52.3375 47.9207 50.8013 47.5043 49.2668C47.1578 48.0913 46.7345 46.9389 46.2373 45.8167C45.4971 43.9342 44.6339 42.1006 43.653 40.3271C43.1126 39.3955 42.5317 38.4863 41.9601 37.5725C41.7909 37.2966 41.6025 37.0325 41.3962 36.7821C40.7014 35.954 39.9924 35.1373 39.2924 34.3133C39.2495 34.2456 39.2154 34.173 39.191 34.097C39.3057 34.0744 39.4246 34.0831 39.5348 34.122C39.6449 34.161 39.7421 34.2287 39.8157 34.318C39.9804 34.49 40.1412 34.666 40.3121 34.8319C41.4882 35.9848 42.4787 37.3064 43.2497 38.7513C43.4144 39.1018 43.5987 39.4431 43.8017 39.7736C44.5347 40.92 45.145 42.1376 45.6229 43.407C46.0014 44.298 46.3475 45.2036 46.6716 46.1151C47.1037 47.3308 47.5123 48.5548 47.9087 49.7822C48.3248 51.0701 48.6955 52.3721 49.1214 53.6566C49.4867 54.7587 49.9 55.8455 50.2966 56.9375C50.3614 57.12 50.4398 57.2976 50.5309 57.4689C51.1117 58.6235 51.8247 59.7095 52.656 60.706C53.2498 61.3938 53.9293 62.0057 54.6786 62.5274C55.1672 62.8626 55.7519 63.0365 56.348 63.0242C56.9609 63.0034 57.5678 62.899 58.1513 62.7139C58.4647 62.6188 58.7717 62.5047 59.0706 62.3722C59.26 62.2911 59.2595 62.1872 59.0937 61.9651C59.0739 61.9387 59.0177 61.9384 58.9901 61.9296C58.8249 62.0339 58.6509 62.1244 58.4702 62.2001C57.7897 62.4399 57.0778 62.583 56.3561 62.6251C56.0051 62.6419 55.6554 62.5735 55.3379 62.426C54.9985 62.276 54.678 62.0882 54.3826 61.8661C53.3138 61.0067 52.4027 59.9745 51.6887 58.814C50.7614 57.2302 50.0264 55.5454 49.4985 53.794C49.1436 52.734 48.8231 51.663 48.4889 50.5964C48.1673 49.5705 47.8661 48.5383 47.522 47.5199C47.2467 46.7052 46.9023 45.9132 46.6213 45.1003C46.2409 43.9998 45.7525 42.9443 45.2725 41.8857C44.9794 41.2393 44.6525 40.6071 44.3227 39.9776C44.1533 39.654 43.9144 39.364 43.7588 39.0352C43.2418 37.9927 42.6109 37.0084 41.8773 36.0994C41.4466 35.5579 40.9788 35.0458 40.4771 34.5667C40.3787 34.4703 40.2099 34.3947 40.2806 34.1739C40.4243 34.1882 40.5737 34.1947 40.7198 34.2192C41.6039 34.3678 42.4886 34.5132 43.3705 34.6736C44.5746 34.8925 45.7817 35.0994 46.9776 35.3566C48.1962 35.6186 49.4193 35.8545 50.6561 36.001C51.609 36.1324 52.5545 36.3108 53.4891 36.5355C53.5704 36.5535 53.6626 36.584 53.6369 36.7413C53.5524 36.7938 53.4467 36.8641 53.3367 36.927C52.864 37.1942 52.4067 37.4868 51.9671 37.8036C50.5335 38.8486 49.8952 40.3089 49.6303 41.9742C49.603 42.0583 49.5984 42.1479 49.617 42.2343C49.6355 42.3207 49.6765 42.401 49.7359 42.4672C49.8842 42.4988 50.0414 42.5323 50.2223 42.571C50.0879 43.5235 49.9597 44.4325 49.8292 45.3574C49.9997 45.4223 50.135 45.4739 50.286 45.5313C50.2879 45.6284 50.2954 45.7118 50.29 45.7944C50.2605 46.2438 50.2219 46.6926 50.1973 47.1422C50.125 48.4668 50.198 49.7981 50.0013 51.1168C50.0023 51.138 50.0056 51.1591 50.0112 51.1796C50.0195 51.2747 50.1829 51.3634 50.264 51.31C50.3407 51.2695 50.4078 51.2135 50.4608 51.1458C50.6883 50.8028 50.9914 50.5143 51.3476 50.3014C51.8038 49.9999 52.1854 49.6022 52.4645 49.1373C52.6307 48.8601 52.9019 48.6585 53.219 48.5765C53.4675 48.4907 53.7355 48.4749 53.9927 48.531C54.0987 48.5613 54.212 48.5561 54.3146 48.5163C54.4173 48.4765 54.5035 48.4043 54.5597 48.311C54.6089 48.2399 54.6654 48.1739 54.7284 48.1141C54.7863 48.0412 54.8608 47.9827 54.946 47.9432C55.0311 47.9037 55.1245 47.8844 55.2187 47.8868C55.3128 47.8892 55.4051 47.9132 55.4881 47.9569C55.571 48.0007 55.6424 48.0629 55.6963 48.1386C55.7979 48.2502 55.8752 48.381 55.9235 48.523C56.084 48.9272 56.0892 49.375 55.9379 49.7827C55.7906 50.1402 55.667 50.507 55.5282 50.868C55.3072 51.4569 55.2809 52.099 55.4529 52.7034C55.5932 53.2456 55.8149 53.7644 56.1108 54.2425C56.3598 54.6476 56.6782 55.0074 57.0519 55.3063C57.3745 55.5629 57.7005 55.8163 58.0368 56.055C58.1365 56.1068 58.2442 56.1424 58.3555 56.1604C58.5293 56.0312 58.4656 55.7849 58.6695 55.744C58.7264 55.7796 58.7734 55.7941 58.7963 55.8254C59.3315 56.5088 60.0074 57.074 60.78 57.4843C61.1287 57.6869 61.2075 57.6512 61.3493 57.2246C61.3649 57.1776 61.423 57.1442 61.4577 57.1082C61.505 57.1286 61.549 57.1556 61.5883 57.1884C62.1733 57.9278 63.0479 58.2661 63.826 58.7358C64.0874 58.8936 64.2148 58.8382 64.347 58.5752C64.4026 58.4649 64.4508 58.351 64.515 58.2111C64.6391 58.2768 64.7357 58.3217 64.8258 58.3768C65.3262 58.6834 65.8141 59.0116 66.3271 59.2961C67.1048 59.6884 67.8526 60.1351 68.5648 60.6328C68.9074 60.8924 69.8987 61.4283 69.9852 61.337C69.8326 60.8864 69.8023 60.4046 69.8971 59.939C70.0068 59.2396 70.1321 58.5425 70.2515 57.8445C70.2763 57.7003 70.3041 57.5565 70.3279 57.4271C70.8424 57.2979 70.8622 57.2677 70.7483 56.8208C70.7271 56.7375 70.6965 56.6561 70.6804 56.5719C70.5127 55.7916 70.4446 54.9939 70.4779 54.1972C70.6265 54.1487 70.7521 54.0491 70.8315 53.9168C70.9109 53.7845 70.9388 53.6284 70.9099 53.4775C70.8784 52.6836 70.7728 51.8943 70.5944 51.1194C70.5092 50.9176 70.4875 50.6954 70.5321 50.4815C70.6755 50.4714 70.8167 50.4615 70.9775 50.4501C71.0278 50.2107 71.0078 49.9621 70.9197 49.7333C70.8004 49.3878 70.6878 49.0392 70.5489 48.7012C70.157 47.7622 69.4727 46.9687 68.5937 46.4338C68.2816 46.2357 67.9454 46.0737 67.6375 45.8701C67.286 45.6585 67.0224 45.3316 66.8935 44.9474C67.0307 44.8254 67.1615 44.6966 67.2854 44.5615C67.3696 44.4464 67.4964 44.3683 67.6387 44.3437C67.781 44.3192 67.9273 44.3503 68.0465 44.4304C68.3781 44.5946 68.7061 44.7658 69.0387 44.928C69.2702 45.048 69.5081 45.156 69.7512 45.2515C69.9754 45.3333 70.1317 45.2172 70.1576 44.975C70.1711 44.8473 70.1594 44.7171 70.1724 44.5892C70.19 44.4785 70.2135 44.3687 70.2427 44.2604C70.473 44.3112 70.6598 44.3683 70.851 44.3911C71.1532 44.4272 71.4578 44.4493 71.762 44.4601C71.8617 44.471 71.9621 44.4482 72.0469 44.3957C72.1316 44.3431 72.1956 44.2639 72.2284 44.1709C72.2652 44.0818 72.3228 44.0023 72.3966 43.939C72.4704 43.8756 72.5583 43.8301 72.6533 43.806C73.2008 43.5815 73.7958 43.4914 74.3869 43.5434C74.4739 43.5522 74.5613 43.5618 74.6487 43.5631C74.913 43.567 75.0727 43.3948 74.9821 43.1464C74.8559 42.828 74.7102 42.5173 74.5459 42.2161C74.4624 42.0524 74.3531 41.9015 74.251 41.7377C74.3165 41.7146 74.3411 41.6964 74.357 41.7021C74.4191 41.7209 74.4786 41.7473 74.5341 41.7807C75.9544 42.7434 77.3822 43.6974 78.5002 45.0165C78.9891 45.5933 79.524 46.1392 79.9554 46.7549C80.5732 47.6365 81.1226 48.5649 81.6844 49.4832C81.8226 49.726 81.9338 49.9827 82.0163 50.2487C82.3226 51.143 82.6208 52.0398 82.9111 52.9392C83.0094 53.1777 83.068 53.4301 83.0846 53.6868C83.0674 54.3937 83.015 55.101 82.9447 55.805C82.9248 56.0401 82.8458 56.2667 82.7146 56.4644C82.4622 56.8412 82.165 57.1871 81.8292 57.495C80.8159 58.3614 79.9919 58.3255 78.9369 57.7562C78.5232 57.5436 78.2111 57.1804 78.0675 56.7446C77.9195 56.2884 77.9892 56.1012 78.4026 55.8197C78.5336 55.7222 78.6836 55.6521 78.8434 55.6137C79.0031 55.5753 79.1692 55.5694 79.3314 55.5964C79.4299 55.6074 79.529 55.6121 79.6281 55.6104C79.6292 55.5422 79.6384 55.5119 79.6285 55.5035C79.4821 55.3421 79.2781 55.2419 79.0587 55.2235C78.8392 55.2051 78.6208 55.27 78.4487 55.4047C78.358 55.4649 78.2637 55.5198 78.1664 55.569C77.9806 55.6657 77.8321 55.8194 77.7436 56.0066C77.6551 56.1938 77.6315 56.4042 77.6763 56.6058C77.7138 56.8509 77.8019 57.086 77.9352 57.2965C78.0686 57.5071 78.2443 57.6887 78.4517 57.8303C78.879 58.1344 79.3677 58.3452 79.8849 58.4485C80.2067 58.5214 80.5426 58.5077 80.8572 58.4089C81.6563 58.1606 82.3451 57.6521 82.8095 56.9677C83.1225 56.5039 83.3299 55.9794 83.4175 55.4299C83.5526 54.8455 83.6136 54.2471 83.5993 53.6481C83.5781 52.7929 83.4374 51.9447 83.1812 51.127C83.0544 50.7616 82.9123 50.4013 82.7825 50.0368C82.757 49.9649 82.6937 49.8809 82.8095 49.7989C82.8651 49.8114 82.9179 49.8337 82.9654 49.8645C83.6945 50.5447 84.4376 51.2116 85.1408 51.9168C85.6603 52.4388 86.2089 52.932 86.7843 53.3942C87.1618 53.7191 87.5613 54.0185 87.9801 54.2904C88.707 54.7268 89.4641 55.1153 90.2128 55.5164C90.519 55.6804 90.8326 55.8324 91.1492 55.9762C91.5065 56.1384 91.8739 56.2791 92.2318 56.4398C93.357 56.9719 94.5504 57.3524 95.7796 57.5709C96.726 57.7645 97.7055 57.7383 98.6397 57.4942C99.0404 57.3783 99.4004 57.1558 99.6799 56.8513C99.7426 56.7906 99.7892 56.7159 99.8158 56.6336C99.8424 56.5513 99.8483 56.4638 99.8327 56.3788C99.7787 55.9911 99.5727 55.6394 99.2585 55.3983C99.1463 55.3401 99.0202 55.3126 98.8935 55.3186C98.8541 55.3165 98.7839 55.3982 98.7751 55.4493C98.7728 55.4796 98.7782 55.5099 98.7908 55.5377C98.8033 55.5654 98.8227 55.5897 98.8471 55.6084C98.9917 55.6655 99.1395 55.7146 99.2897 55.7554C99.2668 55.8864 99.2602 56.0196 99.27 56.1522C99.3012 56.3013 99.2776 56.4565 99.2035 56.5902C99.1293 56.7239 99.0093 56.8276 98.8647 56.8829C98.5436 57.069 98.1825 57.1787 97.8103 57.2033C97.1318 57.2267 96.4532 57.159 95.7933 57.002C94.9804 56.8322 94.155 56.7014 93.3608 56.4687C92.3597 56.1529 91.4004 55.7215 90.5031 55.1837C88.4804 53.9816 86.6285 52.5227 84.9955 50.8449C84.3498 50.205 83.7362 49.5327 83.1303 48.8558C82.3081 47.9372 81.5159 46.9927 80.6948 46.0731C80.0039 45.2991 79.4125 44.4402 78.639 43.7373C78.3673 43.4902 78.0496 43.2889 77.7944 43.0276C77.2492 42.5004 76.6515 42.0281 76.0103 41.6178C75.9469 41.5745 75.8337 41.5483 75.9259 41.4032C76.0175 41.4048 76.1244 41.3999 76.2299 41.4095C77.493 41.5241 78.7586 41.6181 80.018 41.7636C81.2559 41.9065 82.4882 42.0979 83.7218 42.276C85.1281 42.479 86.533 42.6938 87.9496 42.8156C89.6924 42.9656 91.436 43.1058 93.1805 43.2363C94.2323 43.3107 95.2547 43.6102 96.1758 44.1137C97.7805 44.9895 99.4072 45.8272 100.988 46.7469C101.469 46.9977 101.966 47.2177 102.476 47.4054C104.251 48.1394 106.089 48.7174 107.969 49.1327C108.481 49.2452 109.001 49.3239 109.524 49.368C110.721 49.477 111.919 49.5756 113.118 49.6454C113.991 49.7177 114.866 49.7366 115.741 49.7019C117.134 49.5628 118.506 49.2696 119.832 48.8279C120.293 48.6923 120.743 48.52 121.189 48.3416C121.615 48.175 122.033 47.9873 122.44 47.7792C123.01 47.5015 123.521 47.1211 123.948 46.6578C124.316 46.2341 124.647 45.7778 124.977 45.3237C125.439 44.6931 125.757 43.9728 125.911 43.2114C126.063 42.5388 126.072 41.843 125.939 41.1667C125.78 40.5858 125.533 40.0314 125.207 39.5218C125.044 39.2735 124.91 39.0081 124.807 38.7306C125.029 38.6124 125.288 38.578 125.534 38.6339C126.572 38.7197 127.599 38.903 128.602 39.1812C128.623 39.3261 128.638 39.4236 128.647 39.4828C129.449 39.9269 130.306 40.1639 130.985 40.6872C131.088 41.5003 131.361 41.7804 132.109 41.8647C132.191 41.7492 132.229 41.6091 132.217 41.4688C132.205 41.3285 132.143 41.1967 132.042 41.0964ZM73.9969 41.1136C73.9771 41.117 73.9569 41.1168 73.9371 41.113C73.928 41.1074 73.9211 41.099 73.9173 41.0891L73.9867 41.0954L73.9969 41.1136ZM84.9803 42.0897C84.9819 42.0961 84.985 42.1007 84.9861 42.1075C84.8608 42.0908 84.7359 42.0732 84.6107 42.0563L84.9803 42.0897ZM120.107 37.8039C120.284 37.6436 120.494 37.5225 120.722 37.4486C120.951 37.3747 121.193 37.3498 121.433 37.3755C122.174 37.4441 122.886 37.6942 123.503 38.1029C123.572 38.1675 123.633 38.2389 123.687 38.3159C123.106 38.4313 122.597 38.5282 122.089 38.6345C121.6 38.7371 121.113 38.8498 120.624 38.957C120.136 39.1193 119.635 39.2419 119.126 39.3236C119.092 39.2935 119.065 39.2559 119.049 39.2137C119.032 39.1716 119.026 39.1262 119.031 39.0813C119.036 39.0365 119.052 38.9934 119.078 38.9558C119.103 38.9182 119.138 38.8872 119.178 38.8652C119.387 38.7524 119.568 38.5958 119.709 38.4067C119.74 38.3543 120.079 37.8281 120.107 37.8039ZM114.214 39.9558C114.397 39.6898 114.58 39.4221 114.735 39.1406C114.879 38.8798 114.987 38.5997 115.13 38.2843C115.347 38.4396 115.522 38.5591 115.691 38.6868C115.992 38.9379 116.373 39.0791 116.768 39.0864C117.33 39.0878 117.892 39.1407 118.468 39.1722C118.488 39.2085 118.5 39.2491 118.501 39.2907C118.503 39.3322 118.494 39.3734 118.476 39.411C118.458 39.4485 118.431 39.4813 118.397 39.5066C118.363 39.5318 118.324 39.5489 118.282 39.5563C117.973 39.6606 117.658 39.75 117.342 39.8349C116.374 40.0956 115.404 40.3497 114.436 40.6096C114.182 40.7003 113.908 40.7253 113.642 40.682C113.773 40.3584 114.049 40.1965 114.214 39.9558ZM108.724 41.7272C108.681 41.7616 108.637 41.824 108.583 41.8353C107.973 41.9697 107.351 42.0436 106.726 42.0561C106.833 41.9208 106.927 41.8195 107 41.7058C107.08 41.5821 107.071 41.5688 106.953 41.2708C106.72 41.3494 106.57 41.6309 106.281 41.5733C106.151 41.5657 106.023 41.5421 105.899 41.5031C105.743 41.4087 105.596 41.3015 105.458 41.1825C105.886 40.6627 106.462 40.3961 106.95 40.0011C107.962 40.3696 108.537 40.9396 108.724 41.7272ZM104.947 41.4279C105.264 41.6174 105.595 41.813 105.923 42.0146C105.946 42.029 105.951 42.0718 105.961 42.1078C105.112 42.2822 104.246 42.361 103.379 42.3425C103.622 42.0555 104.013 41.8318 104.947 41.4279ZM100.445 43.0015C100.432 43.0128 100.415 43.0362 100.408 43.0336C100.387 43.0247 100.367 43.0144 100.347 43.0027L100.445 43.0015ZM100.185 42.9624C100.213 42.9674 100.24 42.9766 100.266 42.9898C100.239 42.9952 100.213 43.0008 100.187 43.005C100.167 43.0081 100.147 43.0077 100.127 43.0089C100.146 42.9924 100.168 42.9604 100.185 42.9624ZM99.6932 45.039C98.9165 44.5196 98.0927 44.0715 97.2322 43.7004C97.1141 43.6492 97.0064 43.5775 96.9143 43.4889C98.2692 43.371 99.6171 43.4825 100.96 43.4123C102.29 43.3428 103.62 43.2694 104.946 43.1525C106.292 43.034 107.632 42.8605 108.986 42.7098C109.023 42.8115 109.083 42.8918 109.075 42.9651C109.061 43.3291 108.973 43.6867 108.817 44.0168C108.66 44.3468 108.437 44.6427 108.161 44.8868C107.408 45.5177 106.475 45.9051 105.49 45.9962C104.667 46.1078 103.836 46.1444 103.006 46.1055C102.745 46.0921 102.485 46.0623 102.228 46.0165C101.321 45.8749 100.456 45.5413 99.6932 45.039ZM125.031 39.91C125.759 41.0976 125.775 42.3431 125.366 43.6307C125.225 44.1049 125.009 44.5545 124.726 44.9631C124.399 45.4193 124.097 45.8957 123.737 46.3245C123.324 46.7997 122.815 47.1856 122.243 47.458C121.36 47.8863 120.444 48.2462 119.503 48.5344C118.208 48.9351 116.875 49.2054 115.524 49.3412C115.177 49.3833 114.826 49.3792 114.48 49.3289C114.089 49.293 113.695 49.2767 113.302 49.2802C112.801 49.2542 112.299 49.2285 111.8 49.1794C111.279 49.128 110.759 49.0575 110.241 48.9789C109.981 48.9488 109.725 48.8876 109.48 48.7966C109.091 48.6556 108.689 48.5518 108.279 48.4866C107.918 48.411 107.561 48.3161 107.202 48.2297L107.222 48.2778L107.129 48.2466C107.153 48.2421 107.176 48.2364 107.199 48.2294C106.908 48.1446 106.656 47.9306 106.327 47.9768L106.321 47.9748C105.994 47.7114 105.573 47.6774 105.196 47.5394C104.52 47.2925 103.839 47.057 103.164 46.8089C103.012 46.7353 102.866 46.6514 102.726 46.5578C102.882 46.5217 103.041 46.501 103.201 46.4962C104.14 46.5625 105.083 46.5129 106.009 46.3484C106.972 46.2144 107.866 45.7792 108.557 45.1073C108.849 44.845 109.082 44.5258 109.241 44.1703C109.4 43.8147 109.482 43.4304 109.481 43.0421C109.482 42.9352 109.474 42.8283 109.468 42.6821C109.599 42.6214 109.735 42.571 109.874 42.5313C110.921 42.3125 111.977 42.1306 113.015 41.8793C113.757 41.6998 114.479 41.439 115.205 41.1993C116.179 40.8774 117.149 40.54 118.121 40.2123C118.206 40.1906 118.293 40.1754 118.38 40.1669C118.424 40.2177 118.461 40.2744 118.488 40.3352C118.759 41.3323 119.989 41.762 120.789 41.6564C120.905 41.6531 121.018 41.6248 121.122 41.5735C121.225 41.5223 121.316 41.4493 121.387 41.3598C121.459 41.2703 121.51 41.1665 121.536 41.0557C121.562 40.9449 121.563 40.8298 121.538 40.7186C121.53 40.6328 121.495 40.5515 121.439 40.4853C121.382 40.4192 121.307 40.3713 121.222 40.3479C121.125 40.3274 121.025 40.3347 120.932 40.3687C120.839 40.4028 120.759 40.4623 120.7 40.54C120.69 40.5687 120.688 40.5991 120.694 40.6287C120.7 40.6583 120.713 40.6859 120.732 40.7091C120.805 40.7523 120.881 40.7899 120.959 40.8216C120.981 40.837 120.999 40.8571 121.011 40.8803C121.023 40.9035 121.03 40.9292 121.03 40.9553C121.031 40.9814 121.025 41.0073 121.013 41.0309C121.002 41.0545 120.985 41.0751 120.964 41.0911C120.899 41.1466 120.821 41.1856 120.737 41.2046C120.444 41.2502 120.144 41.2263 119.863 41.1347C119.581 41.0432 119.326 40.8867 119.119 40.6785C119.015 40.5858 118.943 40.4626 118.915 40.3271C118.887 40.1916 118.905 40.0508 118.964 39.9255C120.646 39.277 122.409 38.8506 124.205 38.6575C124.338 38.8274 124.469 38.9698 124.571 39.1296C124.734 39.3838 124.873 39.6525 125.031 39.91Z" fill="#D8E8FF"/>
</svg>
