<svg width="1354" height="36" viewBox="0 0 1354 36" fill="none" xmlns="http://www.w3.org/2000/svg">
<path d="M6.76159 21.488C7.93875 21.4772 9.10002 21.215 10.1677 20.719C11.2353 20.223 12.1847 19.5048 12.9523 18.6122C15.0415 18.6122 17.1307 18.6122 19.2199 18.6122C18.4563 19.0324 17.7556 19.5577 17.1381 20.1729C15.25 22.0512 14.0043 25.1229 14.8157 27.7556C15.5675 30.2095 18.6393 32.4624 21.2198 31.2764C22.4355 30.7157 23.3933 29.3758 23.2221 27.9938C23.0534 26.639 21.6068 25.6391 20.3165 26.2296C20.1475 26.3169 19.9976 26.4371 19.8755 26.583C19.7535 26.7289 19.6617 26.8977 19.6055 27.0795C19.5494 27.2613 19.53 27.4524 19.5486 27.6418C19.5672 27.8311 19.6233 28.0149 19.7137 28.1823C19.8119 28.3535 19.9581 28.4921 20.1342 28.5811C20.3104 28.67 20.5087 28.7055 20.7048 28.6831C20.9008 28.6607 21.086 28.5813 21.2375 28.4548C21.389 28.3284 21.5001 28.1603 21.5572 27.9714C21.5856 27.8973 21.597 27.8177 21.5906 27.7386C21.5841 27.6595 21.56 27.5828 21.52 27.5142C21.48 27.4456 21.4252 27.3869 21.3595 27.3424C21.2937 27.2978 21.2189 27.2686 21.1404 27.2568C21.3779 27.2937 21.5962 27.409 21.7606 27.5844C22.1427 27.9565 22.0509 28.5595 21.8649 29.0036C21.6488 29.4884 21.2713 29.8833 20.7966 30.1208C20.322 30.3584 19.7796 30.4239 19.2621 30.3062C18.2378 30.1005 17.322 29.5324 16.6826 28.7062C16.0432 27.8799 15.7231 26.8509 15.7809 25.8077C15.8653 23.6938 17.1233 21.6914 18.7211 20.3813C19.5522 19.727 20.5062 19.2462 21.5266 18.9674C22.547 18.6887 24.5615 18.7325 24.5615 18.7325L33.8071 18.7763C33.8071 18.7959 34.0068 17.7763 34.0068 17.7763L24.827 17.7984C20.2423 17.5043 16.2498 14.8333 15.7685 10.4564C15.6689 9.41596 15.9481 8.37454 16.5548 7.52351C17.1616 6.67248 18.055 6.06899 19.071 5.8239C19.5808 5.67517 20.1261 5.70503 20.6166 5.90854C21.1071 6.11205 21.5133 6.47701 21.7681 6.94295C21.903 7.15798 21.9797 7.40439 21.9905 7.658C22.0014 7.91162 21.9461 8.1637 21.8301 8.38949C21.679 8.61231 21.4481 8.76864 21.185 8.82619C21.1677 8.83366 21.1528 8.82871 21.1329 8.83367C21.2094 8.81921 21.2817 8.78815 21.3449 8.74273C21.4081 8.6973 21.4606 8.6386 21.4987 8.57072C21.5368 8.50284 21.5595 8.42745 21.5654 8.34984C21.5712 8.27223 21.56 8.1943 21.5324 8.12149C21.0088 6.57077 18.8775 7.86345 19.6615 9.21327C20.4481 10.5655 22.1229 10.0817 22.8871 8.9899C23.701 7.82869 22.9591 6.15886 22.0112 5.33507C20.9121 4.37982 19.4357 4.36246 18.1231 4.84134C16.8515 5.32037 15.7982 6.24662 15.1606 7.44654C14.5383 8.6896 14.3774 10.1131 14.7064 11.4637C14.9724 12.6994 15.4944 13.8656 16.239 14.887C16.9835 15.9084 17.9339 16.7624 19.0288 17.3938C17.8601 17.3963 16.6898 17.3971 15.5178 17.3963C14.6147 17.3963 13.7107 17.3955 12.8059 17.3938C12.0133 16.5385 11.0481 15.8612 9.97414 15.4069C8.90021 14.9525 7.74202 14.7314 6.57624 14.7581C5.41045 14.7848 4.26364 15.0589 3.21168 15.562C2.15972 16.0651 1.22659 16.7859 0.474054 17.6767C0.363778 17.7928 0.302084 17.9466 0.301623 18.1067C0.301161 18.2668 0.361965 18.421 0.471571 18.5377C1.24343 19.4561 2.20579 20.1956 3.29191 20.705C4.37803 21.2145 5.56195 21.4816 6.76159 21.488ZM11.7737 18.0787C11.7734 18.0862 11.7743 18.0938 11.7762 18.101C11.1311 18.7861 10.3526 19.3321 9.48876 19.7054C8.62491 20.0788 7.69388 20.2716 6.7528 20.2721C5.81173 20.2725 4.88048 20.0806 4.01627 19.7081C3.15205 19.3356 2.3731 18.7905 1.72724 18.106C2.37908 17.434 3.1588 16.8992 4.02051 16.5331C4.88222 16.1671 5.8085 15.9772 6.74473 15.9746C7.68096 15.9721 8.60823 16.1569 9.47192 16.5183C10.3356 16.8797 11.1183 17.4102 11.7737 18.0787Z" fill="#C19332"/>
<line x1="1354" y1="18.5" x2="33" y2="18.5" stroke="#C19332"/>
</svg>
