<svg width="33" height="47" viewBox="0 0 33 47" fill="none" xmlns="http://www.w3.org/2000/svg">
<path d="M16.5002 0C7.86174 0 0.833496 7.02824 0.833496 15.6667C0.833496 18.26 1.48186 20.8312 2.71441 23.1118L15.6435 46.4951C15.8156 46.8069 16.1436 47 16.5002 47C16.8568 47 17.1848 46.8069 17.3569 46.4951L30.2907 23.1041C31.5185 20.8312 32.1669 18.2599 32.1669 15.6666C32.1669 7.02824 25.1386 0 16.5002 0ZM16.5002 23.5C12.181 23.5 8.66689 19.9859 8.66689 15.6667C8.66689 11.3475 12.181 7.83339 16.5002 7.83339C20.8194 7.83339 24.3335 11.3475 24.3335 15.6667C24.3335 19.9859 20.8194 23.5 16.5002 23.5Z" fill="#C19332"/>
</svg>
