<svg width="30" height="30" viewBox="0 0 30 30" fill="none" xmlns="http://www.w3.org/2000/svg">
<g clip-path="url(#clip0)">
<path d="M20.4107 19.2494C20.0615 19.7549 19.3134 19.7547 18.9643 19.2494C18.9061 19.1651 17.5222 17.1571 16.1147 14.7309C14.1424 11.3308 13.1836 8.96554 13.1836 7.49988C13.1836 6.7558 13.3096 6.04066 13.5407 5.37421C14.5194 2.55228 17.3484 0.677924 20.4482 1.04068C23.6953 1.42253 26.1914 4.18769 26.1914 7.49988C26.1914 8.96554 25.2326 11.3308 23.2603 14.7309C21.8528 17.1571 20.4689 19.1651 20.4107 19.2494ZM19.6875 4.74597C18.169 4.74597 16.9336 5.98136 16.9336 7.49988C16.9336 9.01839 18.169 10.2538 19.6875 10.2538C21.206 10.2538 22.4414 9.01839 22.4414 7.49988C22.4414 5.98136 21.206 4.74597 19.6875 4.74597Z" fill="white"/>
<path d="M0.707578 6.63793C6.08074 5.56994 8.41225 5.10529 9.43359 4.90332V27.3208L1.05023 28.9871C0.507364 29.0948 0 28.6793 0 28.125V7.50002C0 7.08061 0.296308 6.71967 0.707578 6.63793Z" fill="white"/>
<path d="M20.5664 21.2347C21.0827 21.052 21.5372 20.7115 21.8567 20.2489C21.9164 20.1625 23.335 18.1052 24.7807 15.6131C26.0251 13.4679 27.9492 9.9631 27.9492 7.5C27.9492 6.6423 27.8177 5.81472 27.574 5.03631L28.9498 4.76291C29.4923 4.65533 30 5.07017 30 5.625V26.25C30 26.6693 29.7037 27.0303 29.2924 27.112C23.8873 28.1863 21.5666 28.6481 20.5664 28.8466V21.2347Z" fill="white"/>
<path d="M11.1914 7.5C11.363 7.53428 11.1914 7.5 11.1914 7.5C11.3623 8.4883 11.7053 9.63164 12.2805 11.0504C13.4156 13.8506 15.8518 17.8378 17.5181 20.2485C17.8378 20.7114 18.2923 21.052 18.8086 21.2347V28.8458C17.8826 28.6608 15.8179 28.2475 11.1914 27.3222V7.5Z" fill="white"/>
</g>
<defs>
<clipPath id="clip0">
<rect width="30" height="30" fill="white" transform="matrix(-1 0 0 1 30 0)"/>
</clipPath>
</defs>
</svg>
