<svg width="20" height="21" viewBox="0 0 20 21" fill="none" xmlns="http://www.w3.org/2000/svg">
<path fill-rule="evenodd" clip-rule="evenodd" d="M10.1551 5.95523L1.20662 1.04786C1.0847 0.980979 0.946166 0.945523 0.805003 0.945073C0.663841 0.944622 0.525052 0.979194 0.402648 1.0453C0.280245 1.1114 0.178562 1.20669 0.107867 1.32155C0.0371712 1.43641 -3.44117e-05 1.56678 7.42514e-06 1.69948V20.1876C-0.000600997 20.3206 0.0361917 20.4513 0.106656 20.5666C0.177121 20.6819 0.278753 20.7776 0.401252 20.8441C0.523751 20.9105 0.662763 20.9454 0.804199 20.9451C0.945634 20.9447 1.08447 20.9093 1.20662 20.8423L5.54344 18.464C5.64809 15.9509 7.63644 13.9163 10.1551 13.6928V5.95523ZM15.6944 8.99295V12.8972L18.0672 11.5959C18.188 11.5294 18.2882 11.4344 18.3579 11.3202C18.4275 11.206 18.4641 11.0767 18.4641 10.9451C18.4641 10.8134 18.4275 10.6841 18.3579 10.5699C18.2882 10.4558 18.188 10.3607 18.0672 10.2942L15.6944 8.99295Z" fill="white"/>
<path fill-rule="evenodd" clip-rule="evenodd" d="M10.1551 5.95523L1.20662 1.04786C1.0847 0.980979 0.946166 0.945523 0.805003 0.945073C0.663841 0.944622 0.525052 0.979194 0.402648 1.0453C0.280245 1.1114 0.178562 1.20669 0.107867 1.32155C0.0371712 1.43641 -3.44117e-05 1.56678 7.42514e-06 1.69948V20.1876C-0.000600997 20.3206 0.0361917 20.4513 0.106656 20.5666C0.177121 20.6819 0.278753 20.7776 0.401252 20.8441C0.523751 20.9105 0.662763 20.9454 0.804199 20.9451C0.945634 20.9447 1.08447 20.9093 1.20662 20.8423L5.54344 18.464C5.64809 15.9509 7.63644 13.9163 10.1551 13.6928V5.95523ZM15.6944 8.99295V12.8972L18.0672 11.5959C18.188 11.5294 18.2882 11.4344 18.3579 11.3202C18.4275 11.206 18.4641 11.0767 18.4641 10.9451C18.4641 10.8134 18.4275 10.6841 18.3579 10.5699C18.2882 10.4558 18.188 10.3607 18.0672 10.2942L15.6944 8.99295Z" fill="url(#paint0_linear)"/>
<path d="M17.6757 4.71966C13.9632 2.16611 13.4851 1.31326 13.4344 1.19948L13.44 0.945068L13.1727 0.976292C12.3707 1.06834 12.0889 1.61076 12.0489 1.92256V15.7354C11.4404 15.5869 10.7541 15.5934 10.0952 15.7544C9.22772 15.9664 8.4754 16.4238 7.97631 17.0434C7.46339 17.6799 7.27611 18.4054 7.44715 19.081C7.61717 20.1434 8.88413 20.9451 10.3932 20.9451C10.7288 20.9451 11.062 20.905 11.3849 20.8245C12.8412 20.4675 13.7127 19.3923 13.8479 18.2178V5.03598C14.5943 5.10898 17.2311 5.43125 19.5683 9.03941L19.9974 9.70242L19.9998 8.91614C20.0006 8.81697 19.985 6.46994 17.6757 4.71966Z" fill="white"/>
<path d="M17.6757 4.71966C13.9632 2.16611 13.4851 1.31326 13.4344 1.19948L13.44 0.945068L13.1727 0.976292C12.3707 1.06834 12.0889 1.61076 12.0489 1.92256V15.7354C11.4404 15.5869 10.7541 15.5934 10.0952 15.7544C9.22772 15.9664 8.4754 16.4238 7.97631 17.0434C7.46339 17.6799 7.27611 18.4054 7.44715 19.081C7.61717 20.1434 8.88413 20.9451 10.3932 20.9451C10.7288 20.9451 11.062 20.905 11.3849 20.8245C12.8412 20.4675 13.7127 19.3923 13.8479 18.2178V5.03598C14.5943 5.10898 17.2311 5.43125 19.5683 9.03941L19.9974 9.70242L19.9998 8.91614C20.0006 8.81697 19.985 6.46994 17.6757 4.71966Z" fill="url(#paint1_linear)"/>
<defs>
<linearGradient id="paint0_linear" x1="2.59208" y1="-7.05493" x2="18.7761" y2="-5.05193" gradientUnits="userSpaceOnUse">
<stop stop-color="#C19332"/>
<stop offset="1" stop-color="#DAB045"/>
</linearGradient>
<linearGradient id="paint1_linear" x1="9.15633" y1="-7.05493" x2="20.3026" y2="-6.11248" gradientUnits="userSpaceOnUse">
<stop stop-color="#C19332"/>
<stop offset="1" stop-color="#DAB045"/>
</linearGradient>
</defs>
</svg>
