<svg width="35" height="28" viewBox="0 0 35 28" fill="none" xmlns="http://www.w3.org/2000/svg">
<path d="M27.9833 17.4304C26.8061 17.4195 25.6449 17.1573 24.5772 16.6614C23.5096 16.1654 22.5602 15.4471 21.7926 14.5546C19.7034 14.5546 17.6142 14.5546 15.525 14.5545C16.2886 14.9747 16.9893 15.5001 17.6067 16.1153C19.4949 17.9935 20.7406 21.0653 19.9292 23.6979C19.1773 26.1519 16.1056 28.4048 13.5251 27.2188C12.3093 26.6581 11.3515 25.3182 11.5227 23.9362C11.6915 22.5813 13.138 21.5815 14.4283 22.172C14.5973 22.2593 14.7473 22.3795 14.8693 22.5254C14.9914 22.6713 15.0832 22.8401 15.1393 23.0219C15.1955 23.2037 15.2148 23.3948 15.1963 23.5841C15.1777 23.7735 15.1216 23.9573 15.0312 24.1247C14.933 24.2958 14.7868 24.4344 14.6106 24.5234C14.4345 24.6124 14.2362 24.6479 14.0401 24.6255C13.844 24.603 13.6589 24.5237 13.5074 24.3972C13.3559 24.2708 13.2448 24.1027 13.1877 23.9138C13.1593 23.8397 13.1479 23.7601 13.1543 23.681C13.1607 23.6018 13.1848 23.5251 13.2248 23.4566C13.2648 23.388 13.3197 23.3293 13.3854 23.2848C13.4511 23.2402 13.526 23.211 13.6045 23.1992C13.367 23.2361 13.1486 23.3514 12.9843 23.5267C12.6022 23.8989 12.6939 24.5018 12.88 24.946C13.096 25.4308 13.4736 25.8257 13.9482 26.0632C14.4229 26.3008 14.9652 26.3663 15.4828 26.2486C16.5071 26.0429 17.4229 25.4748 18.0623 24.6485C18.7017 23.8223 19.0218 22.7933 18.964 21.7501C18.8796 19.6362 17.6216 17.6338 16.0237 16.3237C15.1927 15.6693 14.2387 15.1885 13.2183 14.9098C12.1979 14.6311 10.1834 14.6749 10.1834 14.6749L0.937739 14.7186C0.937739 14.7383 0.738078 13.7186 0.738078 13.7186L9.9179 13.7408C14.5026 13.4466 18.495 10.7757 18.9764 6.39874C19.076 5.35834 18.7967 4.31692 18.19 3.46589C17.5833 2.61486 16.6899 2.01137 15.6738 1.76628C15.1641 1.61755 14.6188 1.64741 14.1283 1.85092C13.6378 2.05443 13.2315 2.41939 12.9768 2.88534C12.8419 3.10036 12.7652 3.34677 12.7543 3.60039C12.7435 3.854 12.7987 4.10608 12.9148 4.33187C13.0659 4.55469 13.2968 4.71102 13.5599 4.76857C13.5772 4.77604 13.5921 4.77109 13.612 4.77605C13.5355 4.76159 13.4631 4.73053 13.3999 4.68511C13.3367 4.63968 13.2842 4.58098 13.2462 4.5131C13.2081 4.44522 13.1853 4.36983 13.1795 4.29222C13.1737 4.21461 13.1849 4.13668 13.2124 4.06388C13.736 2.51315 15.8674 3.80583 15.0834 5.15566C14.2968 6.50789 12.622 6.02409 11.8577 4.93228C11.0439 3.77107 11.7858 2.10124 12.7336 1.27746C13.8328 0.322205 15.3091 0.304846 16.6217 0.783723C17.8933 1.26275 18.9466 2.189 19.5843 3.38893C20.2065 4.63198 20.3675 6.0555 20.0384 7.40609C19.7725 8.64176 19.2504 9.80795 18.5059 10.8294C17.7614 11.8508 16.811 12.7048 15.7161 13.3362C16.8848 13.3387 18.0551 13.3395 19.227 13.3387C20.1302 13.3387 21.0342 13.3379 21.939 13.3362C22.7316 12.4809 23.6968 11.8036 24.7707 11.3492C25.8447 10.8949 27.0028 10.6737 28.1686 10.7005C29.3344 10.7272 30.4812 11.0012 31.5332 11.5044C32.5852 12.0075 33.5183 12.7283 34.2708 13.6191C34.3811 13.7352 34.4428 13.889 34.4433 14.0491C34.4437 14.2092 34.3829 14.3634 34.2733 14.4801C33.5014 15.3985 32.5391 16.138 31.453 16.6474C30.3668 17.1568 29.1829 17.424 27.9833 17.4304ZM22.9711 14.0211C22.9715 14.0286 22.9706 14.0361 22.9686 14.0434C23.6138 14.7285 24.3923 15.2745 25.2561 15.6478C26.12 16.0212 27.051 16.214 27.9921 16.2145C28.9331 16.2149 29.8644 16.023 30.7286 15.6505C31.5928 15.278 32.3718 14.7328 33.0176 14.0484C32.3658 13.3763 31.5861 12.8415 30.7244 12.4755C29.8627 12.1095 28.9364 11.9196 28.0001 11.917C27.0639 11.9145 26.1366 12.0993 25.2729 12.4607C24.4093 12.822 23.6266 13.3526 22.9711 14.0211Z" fill="#C19332"/>
</svg>
