<svg width="35" height="28" viewBox="0 0 35 28" fill="none" xmlns="http://www.w3.org/2000/svg">
<path d="M27.9833 17.2067C26.8061 17.1959 25.6449 16.9337 24.5772 16.4378C23.5096 15.9418 22.5602 15.2235 21.7926 14.3309C19.7034 14.3309 17.6142 14.3309 15.525 14.3309C16.2886 14.7511 16.9893 15.2765 17.6067 15.8917C19.4949 17.7699 20.7406 20.8417 19.9292 23.4743C19.1773 25.9282 16.1056 28.1812 13.5251 26.9952C12.3093 26.4344 11.3515 25.0945 11.5227 23.7125C11.6915 22.3577 13.138 21.3578 14.4283 21.9483C14.5973 22.0357 14.7473 22.1558 14.8693 22.3018C14.9914 22.4477 15.0832 22.6165 15.1393 22.7982C15.1955 22.98 15.2148 23.1712 15.1963 23.3605C15.1777 23.5499 15.1216 23.7336 15.0312 23.9011C14.933 24.0722 14.7868 24.2108 14.6106 24.2998C14.4345 24.3888 14.2362 24.4243 14.0401 24.4018C13.844 24.3794 13.6589 24.3001 13.5074 24.1736C13.3559 24.0471 13.2448 23.8791 13.1877 23.6902C13.1593 23.616 13.1479 23.5365 13.1543 23.4573C13.1607 23.3782 13.1848 23.3015 13.2248 23.2329C13.2648 23.1644 13.3197 23.1057 13.3854 23.0611C13.4511 23.0166 13.526 22.9873 13.6045 22.9756C13.367 23.0124 13.1486 23.1277 12.9843 23.3031C12.6022 23.6753 12.6939 24.2782 12.88 24.7224C13.096 25.2072 13.4736 25.602 13.9482 25.8396C14.4229 26.0771 14.9652 26.1427 15.4828 26.025C16.5071 25.8192 17.4229 25.2512 18.0623 24.4249C18.7017 23.5987 19.0218 22.5696 18.964 21.5265C18.8796 19.4125 17.6216 17.4101 16.0237 16.1C15.1927 15.4457 14.2387 14.9649 13.2183 14.6862C12.1979 14.4074 10.1834 14.4513 10.1834 14.4513L0.937739 14.495C0.937739 14.5146 0.738078 13.495 0.738078 13.495L9.9179 13.5171C14.5026 13.223 18.495 10.552 18.9764 6.17511C19.076 5.13471 18.7967 4.09329 18.19 3.24226C17.5833 2.39123 16.6899 1.78774 15.6738 1.54265C15.1641 1.39392 14.6188 1.42378 14.1283 1.62729C13.6378 1.8308 13.2315 2.19576 12.9768 2.6617C12.8419 2.87673 12.7652 3.12314 12.7543 3.37675C12.7435 3.63037 12.7987 3.88245 12.9148 4.10824C13.0659 4.33106 13.2968 4.48739 13.5599 4.54494C13.5772 4.55241 13.5921 4.54746 13.612 4.55242C13.5355 4.53796 13.4631 4.5069 13.3999 4.46148C13.3367 4.41605 13.2842 4.35735 13.2462 4.28947C13.2081 4.22159 13.1853 4.1462 13.1795 4.06859C13.1737 3.99098 13.1849 3.91305 13.2124 3.84024C13.736 2.28952 15.8674 3.5822 15.0834 4.93202C14.2968 6.28426 12.622 5.80045 11.8577 4.70865C11.0439 3.54744 11.7858 1.87761 12.7336 1.05382C13.8328 0.098572 15.3091 0.0812136 16.6217 0.56009C17.8933 1.03912 18.9466 1.96537 19.5843 3.16529C20.2065 4.40835 20.3675 5.83187 20.0384 7.18246C19.7725 8.41813 19.2504 9.58432 18.5059 10.6057C17.7614 11.6272 16.811 12.4812 15.7161 13.1126C16.8848 13.115 18.0551 13.1159 19.227 13.115C20.1302 13.1151 21.0342 13.1142 21.939 13.1126C22.7316 12.2572 23.6968 11.58 24.7707 11.1256C25.8447 10.6712 27.0028 10.4501 28.1686 10.4769C29.3344 10.5036 30.4812 10.7776 31.5332 11.2808C32.5852 11.7839 33.5183 12.5047 34.2708 13.3955C34.3811 13.5115 34.4428 13.6654 34.4433 13.8255C34.4437 13.9856 34.3829 14.1398 34.2733 14.2565C33.5014 15.1748 32.5391 15.9143 31.453 16.4238C30.3668 16.9332 29.1829 17.2004 27.9833 17.2067ZM22.9711 13.7974C22.9715 13.805 22.9706 13.8125 22.9686 13.8198C23.6138 14.5049 24.3923 15.0508 25.2561 15.4242C26.12 15.7975 27.051 15.9904 27.9921 15.9908C28.9331 15.9913 29.8644 15.7994 30.7286 15.4269C31.5928 15.0544 32.3718 14.5092 33.0176 13.8247C32.3658 13.1527 31.5861 12.6179 30.7244 12.2519C29.8627 11.8858 28.9364 11.6959 28.0001 11.6934C27.0639 11.6908 26.1366 11.8757 25.2729 12.2371C24.4093 12.5984 23.6266 13.129 22.9711 13.7974Z" fill="#C19332"/>
</svg>
