<svg width="24" height="23" viewBox="0 0 24 23" fill="none" xmlns="http://www.w3.org/2000/svg">
<path d="M9.60369 22.0948V11.6862H5.14286C5.14286 10.019 5.45827 8.62217 6.08909 7.4957C6.71992 6.32417 7.89145 5.44552 9.60369 4.85976V0.398926C8.20686 0.579162 6.90015 1.00722 5.68356 1.6831C4.51203 2.31393 3.49821 3.12499 2.64209 4.11628C1.78597 5.10758 1.11009 6.25658 0.614439 7.56329C0.163851 8.87 -0.0389144 10.2668 0.00614437 11.7538V22.0948H9.60369ZM24 22.0948V11.6862H19.5392C19.5392 10.019 19.8546 8.62217 20.4854 7.4957C21.1162 6.32417 22.2878 5.44552 24 4.85976V0.398926C22.6032 0.579162 21.2965 1.00722 20.0799 1.6831C18.9083 2.31393 17.8945 3.12499 17.0384 4.11628C16.1823 5.10758 15.5064 6.25658 15.0108 7.56329C14.5602 8.87 14.3574 10.2668 14.4025 11.7538V22.0948H24Z" fill="#DBA059"/>
</svg>
