<svg width="35" height="28" viewBox="0 0 35 28" fill="none" xmlns="http://www.w3.org/2000/svg">
<path d="M6.76159 17.488C7.93875 17.4772 9.10002 17.215 10.1677 16.719C11.2353 16.223 12.1847 15.5048 12.9523 14.6122C15.0415 14.6122 17.1307 14.6122 19.2199 14.6122C18.4563 15.0324 17.7556 15.5577 17.1381 16.1729C15.25 18.0512 14.0043 21.1229 14.8157 23.7556C15.5675 26.2095 18.6393 28.4624 21.2198 27.2764C22.4355 26.7157 23.3933 25.3758 23.2221 23.9938C23.0534 22.639 21.6068 21.6391 20.3165 22.2296C20.1475 22.3169 19.9976 22.4371 19.8755 22.583C19.7535 22.7289 19.6617 22.8977 19.6055 23.0795C19.5494 23.2613 19.53 23.4524 19.5486 23.6418C19.5672 23.8311 19.6233 24.0149 19.7137 24.1823C19.8119 24.3535 19.9581 24.4921 20.1342 24.5811C20.3104 24.67 20.5087 24.7055 20.7048 24.6831C20.9008 24.6607 21.086 24.5813 21.2375 24.4548C21.389 24.3284 21.5001 24.1603 21.5572 23.9714C21.5856 23.8973 21.597 23.8177 21.5906 23.7386C21.5841 23.6595 21.56 23.5828 21.52 23.5142C21.48 23.4456 21.4252 23.3869 21.3595 23.3424C21.2937 23.2978 21.2189 23.2686 21.1404 23.2568C21.3779 23.2937 21.5962 23.409 21.7606 23.5844C22.1427 23.9565 22.0509 24.5595 21.8649 25.0036C21.6488 25.4884 21.2713 25.8833 20.7966 26.1208C20.322 26.3584 19.7796 26.4239 19.2621 26.3062C18.2378 26.1005 17.322 25.5324 16.6826 24.7062C16.0432 23.8799 15.7231 22.8509 15.7809 21.8077C15.8653 19.6938 17.1233 17.6914 18.7211 16.3813C19.5522 15.727 20.5062 15.2462 21.5266 14.9674C22.547 14.6887 24.5615 14.7325 24.5615 14.7325L33.8071 14.7763C33.8071 14.7959 34.0068 13.7763 34.0068 13.7763L24.827 13.7984C20.2423 13.5043 16.2498 10.8333 15.7685 6.45636C15.6689 5.41596 15.9481 4.37454 16.5548 3.52351C17.1616 2.67248 18.055 2.06899 19.071 1.8239C19.5808 1.67517 20.1261 1.70503 20.6166 1.90854C21.1071 2.11205 21.5133 2.47701 21.7681 2.94295C21.903 3.15798 21.9797 3.40439 21.9905 3.658C22.0014 3.91162 21.9461 4.1637 21.8301 4.38949C21.679 4.61231 21.4481 4.76864 21.185 4.82619C21.1677 4.83366 21.1528 4.82871 21.1329 4.83367C21.2094 4.81921 21.2817 4.78815 21.3449 4.74273C21.4081 4.6973 21.4606 4.6386 21.4987 4.57072C21.5368 4.50284 21.5595 4.42745 21.5654 4.34984C21.5712 4.27223 21.56 4.1943 21.5324 4.12149C21.0088 2.57077 18.8775 3.86345 19.6615 5.21327C20.4481 6.56551 22.1229 6.0817 22.8871 4.9899C23.701 3.82869 22.9591 2.15886 22.0112 1.33507C20.9121 0.379822 19.4357 0.362464 18.1231 0.84134C16.8515 1.32037 15.7982 2.24662 15.1606 3.44654C14.5383 4.6896 14.3774 6.11312 14.7064 7.46371C14.9724 8.69938 15.4944 9.86557 16.239 10.887C16.9835 11.9084 17.9339 12.7624 19.0288 13.3938C17.8601 13.3963 16.6898 13.3971 15.5178 13.3963C14.6147 13.3963 13.7107 13.3955 12.8059 13.3938C12.0133 12.5385 11.0481 11.8612 9.97414 11.4069C8.90021 10.9525 7.74202 10.7314 6.57624 10.7581C5.41045 10.7848 4.26364 11.0589 3.21168 11.562C2.15972 12.0651 1.22659 12.7859 0.474054 13.6767C0.363778 13.7928 0.302084 13.9466 0.301623 14.1067C0.301161 14.2668 0.361965 14.421 0.471571 14.5377C1.24343 15.4561 2.20579 16.1956 3.29191 16.705C4.37803 17.2145 5.56195 17.4816 6.76159 17.488ZM11.7737 14.0787C11.7734 14.0862 11.7743 14.0938 11.7762 14.101C11.1311 14.7861 10.3526 15.3321 9.48876 15.7054C8.62491 16.0788 7.69388 16.2716 6.7528 16.2721C5.81173 16.2725 4.88048 16.0806 4.01627 15.7081C3.15205 15.3356 2.3731 14.7905 1.72724 14.106C2.37908 13.434 3.1588 12.8992 4.02051 12.5331C4.88222 12.1671 5.8085 11.9772 6.74473 11.9746C7.68096 11.9721 8.60823 12.1569 9.47192 12.5183C10.3356 12.8797 11.1183 13.4102 11.7737 14.0787Z" fill="#C19332"/>
</svg>
