<svg width="35" height="28" viewBox="0 0 35 28" fill="none" xmlns="http://www.w3.org/2000/svg">
<path d="M6.76159 17.7116C7.93875 17.7008 9.10002 17.4386 10.1677 16.9426C11.2353 16.4467 12.1847 15.7284 12.9523 14.8358C15.0415 14.8358 17.1307 14.8358 19.2199 14.8358C18.4563 15.256 17.7556 15.7814 17.1381 16.3965C15.25 18.2748 14.0043 21.3466 14.8157 23.9792C15.5675 26.4331 18.6393 28.6861 21.2198 27.5C22.4355 26.9393 23.3933 25.5994 23.2221 24.2174C23.0534 22.8626 21.6068 21.8627 20.3165 22.4532C20.1475 22.5406 19.9976 22.6607 19.8755 22.8066C19.7535 22.9526 19.6617 23.1213 19.6055 23.3031C19.5494 23.4849 19.53 23.676 19.5486 23.8654C19.5672 24.0547 19.6233 24.2385 19.7137 24.406C19.8119 24.5771 19.9581 24.7157 20.1342 24.8047C20.3104 24.8937 20.5087 24.9292 20.7048 24.9067C20.9008 24.8843 21.086 24.8049 21.2375 24.6785C21.389 24.552 21.5001 24.384 21.5572 24.1951C21.5856 24.1209 21.597 24.0414 21.5906 23.9622C21.5841 23.8831 21.56 23.8064 21.52 23.7378C21.48 23.6692 21.4252 23.6106 21.3595 23.566C21.2937 23.5215 21.2189 23.4922 21.1404 23.4805C21.3779 23.5173 21.5962 23.6326 21.7606 23.808C22.1427 24.1802 22.0509 24.7831 21.8649 25.2273C21.6488 25.7121 21.2713 26.1069 20.7966 26.3445C20.322 26.582 19.7796 26.6475 19.2621 26.5299C18.2378 26.3241 17.322 25.756 16.6826 24.9298C16.0432 24.1035 15.7231 23.0745 15.7809 22.0314C15.8653 19.9174 17.1233 17.915 18.7211 16.6049C19.5522 15.9506 20.5062 15.4698 21.5266 15.1911C22.547 14.9123 24.5615 14.9562 24.5615 14.9562L33.8071 14.9999C33.8071 15.0195 34.0068 13.9999 34.0068 13.9999L24.827 14.022C20.2423 13.7279 16.2498 11.0569 15.7685 6.67999C15.6689 5.63959 15.9481 4.59817 16.5548 3.74714C17.1616 2.89611 18.055 2.29262 19.071 2.04753C19.5808 1.8988 20.1261 1.92866 20.6166 2.13217C21.1071 2.33568 21.5133 2.70064 21.7681 3.16659C21.903 3.38161 21.9797 3.62802 21.9905 3.88164C22.0014 4.13525 21.9461 4.38733 21.8301 4.61312C21.679 4.83594 21.4481 4.99227 21.185 5.04982C21.1677 5.05729 21.1528 5.05234 21.1329 5.0573C21.2094 5.04284 21.2817 5.01178 21.3449 4.96636C21.4081 4.92093 21.4606 4.86223 21.4987 4.79435C21.5368 4.72647 21.5595 4.65108 21.5654 4.57347C21.5712 4.49586 21.56 4.41793 21.5324 4.34513C21.0088 2.7944 18.8775 4.08708 19.6615 5.43691C20.4481 6.78914 22.1229 6.30534 22.8871 5.21353C23.701 4.05232 22.9591 2.38249 22.0112 1.55871C20.9121 0.603455 19.4357 0.586096 18.1231 1.06497C16.8515 1.544 15.7982 2.47025 15.1606 3.67018C14.5383 4.91323 14.3774 6.33675 14.7064 7.68734C14.9724 8.92301 15.4944 10.0892 16.239 11.1106C16.9835 12.1321 17.9339 12.986 19.0288 13.6174C17.8601 13.6199 16.6898 13.6208 15.5178 13.6199C14.6147 13.62 13.7107 13.6191 12.8059 13.6174C12.0133 12.7621 11.0481 12.0849 9.97414 11.6305C8.90021 11.1761 7.74202 10.955 6.57624 10.9817C5.41045 11.0085 4.26364 11.2825 3.21168 11.7856C2.15972 12.2888 1.22659 13.0096 0.474054 13.9004C0.363778 14.0164 0.302084 14.1703 0.301623 14.3304C0.301161 14.4905 0.361965 14.6446 0.471571 14.7613C1.24343 15.6797 2.20579 16.4192 3.29191 16.9287C4.37803 17.4381 5.56195 17.7053 6.76159 17.7116ZM11.7737 14.3023C11.7734 14.3099 11.7743 14.3174 11.7762 14.3247C11.1311 15.0098 10.3526 15.5557 9.48876 15.9291C8.62491 16.3024 7.69388 16.4952 6.7528 16.4957C5.81173 16.4962 4.88048 16.3043 4.01627 15.9318C3.15205 15.5593 2.3731 15.0141 1.72724 14.3296C2.37908 13.6576 3.1588 13.1228 4.02051 12.7567C4.88222 12.3907 5.8085 12.2008 6.74473 12.1983C7.68096 12.1957 8.60823 12.3806 9.47192 12.7419C10.3356 13.1033 11.1183 13.6338 11.7737 14.3023Z" fill="#C19332"/>
</svg>
