<svg width="30" height="30" viewBox="0 0 30 30" fill="none" xmlns="http://www.w3.org/2000/svg">
<path d="M11.3347 7.29115C11.3463 8.56052 11.6291 9.81276 12.1639 10.964C12.6987 12.1153 13.4732 13.1391 14.4357 13.9668C14.4357 16.2196 14.4357 18.4724 14.4357 20.7253C13.9826 19.9019 13.4161 19.1463 12.7527 18.4805C10.7274 16.4444 7.41497 15.1012 4.57614 15.9761C1.93 16.7869 -0.49944 20.0992 0.779492 22.8819C1.38414 24.1928 2.829 25.2257 4.31926 25.041C5.78019 24.8591 6.8584 23.2992 6.22164 21.9079C6.12745 21.7256 5.99789 21.564 5.84053 21.4323C5.68318 21.3007 5.50118 21.2017 5.30515 21.1412C5.10912 21.0806 4.90303 21.0598 4.69885 21.0798C4.49467 21.0998 4.29649 21.1603 4.11595 21.2578C3.93141 21.3637 3.78194 21.5213 3.68598 21.7113C3.59002 21.9012 3.55176 22.1151 3.57595 22.3265C3.60013 22.5379 3.6857 22.7376 3.82208 22.9009C3.95846 23.0643 4.13967 23.1841 4.34337 23.2457C4.4233 23.2763 4.5091 23.2886 4.59443 23.2817C4.67976 23.2748 4.76247 23.2488 4.83642 23.2056C4.91037 23.1625 4.97365 23.1033 5.02169 23.0325C5.06972 22.9616 5.10125 22.8809 5.11394 22.7962C5.07419 23.0524 4.94987 23.2878 4.76074 23.4651C4.3594 23.8771 3.70927 23.7781 3.23031 23.5775C2.70752 23.3445 2.28173 22.9374 2.02558 22.4256C1.76942 21.9138 1.69877 21.3289 1.82566 20.7708C2.04752 19.6663 2.66011 18.6787 3.55108 17.9893C4.44204 17.2998 5.55168 16.9546 6.67654 17.0169C8.95608 17.1079 11.1153 18.4645 12.528 20.1875C13.2336 21.0837 13.7521 22.1124 14.0527 23.2127C14.3532 24.313 14.3059 26.4853 14.3059 26.4853L14.2588 36.4552C14.2376 36.4552 15.3371 36.6705 15.3371 36.6705L15.3133 26.7716C15.6304 21.8278 18.5106 17.5226 23.2304 17.0036C24.3523 16.8962 25.4753 17.1973 26.393 17.8515C27.3107 18.5058 27.9614 19.4692 28.2257 20.5648C28.3861 21.1145 28.3539 21.7025 28.1344 22.2314C27.915 22.7603 27.5214 23.1984 27.019 23.4731C26.7871 23.6186 26.5214 23.7013 26.2479 23.713C25.9745 23.7247 25.7026 23.6651 25.4592 23.54C25.2189 23.377 25.0503 23.128 24.9883 22.8444C24.9802 22.8257 24.9855 22.8096 24.9802 22.7882C24.9958 22.8706 25.0293 22.9487 25.0783 23.0168C25.1272 23.085 25.1905 23.1416 25.2637 23.1826C25.3369 23.2237 25.4182 23.2482 25.5019 23.2545C25.5856 23.2608 25.6696 23.2487 25.7481 23.219C27.4203 22.6544 26.0264 20.3561 24.5708 21.2015C23.1127 22.0497 23.6344 23.8557 24.8117 24.6798C26.0639 25.5574 27.8645 24.7574 28.7528 23.7353C29.7829 22.55 29.8016 20.9581 29.2852 19.5426C28.7687 18.1714 27.7699 17.0356 26.476 16.348C25.1355 15.6771 23.6005 15.5035 22.1441 15.8583C20.8117 16.1451 19.5541 16.7081 18.4527 17.5109C17.3513 18.3137 16.4304 19.3385 15.7495 20.5193C15.7468 19.259 15.746 17.997 15.7469 16.7333C15.7468 15.7594 15.7477 14.7846 15.7495 13.8089C16.6719 12.9542 17.4021 11.9134 17.8921 10.7553C18.3821 9.59729 18.6205 8.34839 18.5917 7.09128C18.5629 5.83418 18.2674 4.59754 17.7248 3.46318C17.1823 2.32882 16.405 1.32259 15.4445 0.511111C15.3193 0.392197 15.1534 0.325671 14.9808 0.325173C14.8081 0.324676 14.6419 0.390241 14.516 0.508433C13.5257 1.34075 12.7283 2.3785 12.1789 3.54969C11.6296 4.72089 11.3415 5.99754 11.3347 7.29115ZM15.011 12.6959C15.0029 12.6955 14.9948 12.6965 14.9869 12.6986C14.2482 12.0029 13.6594 11.1635 13.2568 10.2319C12.8542 9.30043 12.6463 8.29647 12.6458 7.28168C12.6453 6.26689 12.8522 5.2627 13.2539 4.33079C13.6556 3.39887 14.2435 2.55892 14.9816 1.86246C15.7062 2.56536 16.2829 3.40615 16.6776 4.33536C17.0724 5.26457 17.2771 6.26341 17.2799 7.27297C17.2826 8.28254 17.0833 9.28244 16.6936 10.2138C16.304 11.1451 15.7319 11.9891 15.011 12.6959Z" fill="#C19332"/>
</svg>
