<svg width="34" height="35" viewBox="0 0 34 35" fill="none" xmlns="http://www.w3.org/2000/svg">
<path d="M17.0002 34.199C26.2786 34.199 33.8002 26.6774 33.8002 17.399C33.8002 8.12062 26.2786 0.598999 17.0002 0.598999C7.72181 0.598999 0.200195 8.12062 0.200195 17.399C0.200195 26.6774 7.72181 34.199 17.0002 34.199Z" fill="#466B9B"/>
<path d="M8.1918 15.9508L25.032 9.17425C25.8136 8.87955 26.4962 9.37324 26.2429 10.6067L26.2444 10.6052L23.3771 24.7036C23.1646 25.7031 22.5955 25.9462 21.7993 25.4752L17.4328 22.1166L15.3267 24.2342C15.0938 24.4772 14.8973 24.6823 14.4461 24.6823L14.7561 20.0446L22.8487 12.4144C23.2009 12.0908 22.7701 11.9085 22.3058 12.2306L12.305 18.802L7.99385 17.3984C7.05796 17.0885 7.03758 16.4217 8.1918 15.9508Z" fill="white"/>
</svg>
