<svg width="36" height="37" viewBox="0 0 36 37" fill="none" xmlns="http://www.w3.org/2000/svg">
<g clip-path="url(#clip0)">
<path d="M18 36.399C27.9411 36.399 36 28.3402 36 18.399C36 8.45792 27.9411 0.399048 18 0.399048C8.05887 0.399048 0 8.45792 0 18.399C0 28.3402 8.05887 36.399 18 36.399Z" fill="#466B9B"/>
<path d="M28.7468 12.5583L28.7401 12.5324C28.1973 10.4093 25.7502 8.1312 23.5028 7.65726L23.4775 7.6522C19.8426 6.98133 16.1569 6.98133 12.5227 7.6522L12.4966 7.65726C10.2501 8.1312 7.80281 10.4094 7.2593 12.5324L7.25327 12.5583C6.58224 15.5232 6.58224 18.53 7.25327 21.4948L7.2593 21.5208C7.77972 23.5532 10.0446 25.7267 12.2081 26.3244V28.6943C12.2081 29.5521 13.2885 29.9734 13.9029 29.3544L16.3847 26.8585C16.9231 26.8876 17.4616 26.9038 18.0001 26.9038C19.8298 26.9038 21.6603 26.7364 23.4774 26.401L23.5027 26.396C25.7501 25.922 28.1973 23.6438 28.7401 21.5209L28.7467 21.4949C29.4177 18.53 29.4177 15.5233 28.7468 12.5583ZM26.7827 21.065C26.4203 22.4501 24.5622 24.172 23.0859 24.4902C21.1532 24.8458 19.2051 24.9977 17.259 24.9456C17.2202 24.9445 17.183 24.9591 17.1561 24.986C16.8799 25.2602 15.344 26.7858 15.344 26.7858L13.4167 28.6996C13.2757 28.8418 13.0281 28.745 13.0281 28.5488V24.6228C13.0281 24.558 12.9803 24.5029 12.9144 24.4903C12.914 24.4902 12.9137 24.4902 12.9133 24.4901C11.437 24.1719 9.57958 22.45 9.21653 21.0649C8.61255 18.385 8.61255 15.6682 9.21653 12.9883C9.57958 11.6031 11.437 9.88122 12.9133 9.56307C16.2888 8.94195 19.7112 8.94195 23.086 9.56307C24.563 9.88122 26.4203 11.6031 26.7827 12.9883C27.3874 15.6683 27.3874 18.385 26.7827 21.065Z" fill="white"/>
<path d="M21.5132 23.2989C21.2649 23.2259 21.0283 23.177 20.8084 23.0889C18.5311 22.1748 16.4354 20.9955 14.7753 19.1879C13.8313 18.1599 13.0924 16.9994 12.4679 15.7712C12.1716 15.1888 11.922 14.5836 11.6676 13.9823C11.4356 13.4339 11.7773 12.8675 12.1371 12.4542C12.4747 12.0664 12.9092 11.7698 13.3798 11.551C13.747 11.3803 14.1092 11.4787 14.3775 11.7798C14.9572 12.431 15.4899 13.1154 15.9211 13.8701C16.1863 14.3344 16.1135 14.9018 15.6328 15.2177C15.516 15.2945 15.4095 15.3847 15.3008 15.4714C15.2053 15.5474 15.1155 15.6242 15.05 15.7271C14.9305 15.9153 14.9248 16.1375 15.0017 16.3421C15.5944 17.918 16.5934 19.1434 18.2329 19.8035C18.4953 19.9091 18.7587 20.032 19.0609 19.998C19.5671 19.9408 19.731 19.4036 20.0857 19.1229C20.4324 18.8487 20.8755 18.8451 21.2489 19.0737C21.6225 19.3025 21.9845 19.5479 22.3444 19.7961C22.6978 20.0397 23.0495 20.2778 23.3753 20.5556C23.6887 20.8226 23.7966 21.1729 23.6201 21.5351C23.2971 22.1988 22.827 22.7507 22.1491 23.1031C21.9577 23.2024 21.729 23.2346 21.5132 23.2989C21.2649 23.2259 21.729 23.2346 21.5132 23.2989Z" fill="white"/>
<path d="M18.0065 10.7919C20.9851 10.8727 23.4317 12.7852 23.956 15.6342C24.0453 16.1197 24.0771 16.616 24.1168 17.1088C24.1336 17.316 24.0122 17.5129 23.7811 17.5156C23.5424 17.5184 23.435 17.325 23.4194 17.118C23.3887 16.7079 23.3674 16.296 23.309 15.8894C23.0007 13.7426 21.2314 11.9666 19.0228 11.5855C18.6904 11.5281 18.3504 11.5131 18.0136 11.4789C17.8009 11.4573 17.5222 11.4449 17.475 11.1889C17.4355 10.9743 17.6227 10.8034 17.8339 10.7924C17.8911 10.7891 17.9489 10.7917 18.0065 10.7919C20.9853 10.8727 17.9489 10.7917 18.0065 10.7919Z" fill="white"/>
<path d="M22.5322 16.4694C22.5272 16.5054 22.5247 16.59 22.5028 16.6696C22.4238 16.9589 21.9703 16.9951 21.866 16.7032C21.835 16.6166 21.8304 16.518 21.8303 16.4248C21.8292 15.8145 21.6921 15.2047 21.3739 14.6736C21.0469 14.1277 20.5472 13.669 19.9613 13.3912C19.6069 13.2234 19.2238 13.119 18.8353 13.0569C18.6656 13.0297 18.4941 13.0134 18.3235 12.9903C18.1168 12.9625 18.0063 12.8351 18.0162 12.6381C18.0254 12.4534 18.1649 12.3205 18.3729 12.332C19.0564 12.3695 19.7167 12.5126 20.3245 12.8239C21.5603 13.4571 22.2662 14.4564 22.4723 15.791C22.4816 15.8516 22.4966 15.9114 22.5013 15.972C22.513 16.1217 22.5204 16.2716 22.5322 16.4694C22.5272 16.5052 22.5204 16.2716 22.5322 16.4694Z" fill="white"/>
<path d="M20.6791 16.3992C20.43 16.4036 20.2966 16.27 20.2708 16.0491C20.253 15.8951 20.2388 15.7388 20.2008 15.5888C20.1259 15.2934 19.9637 15.0198 19.7069 14.8388C19.5857 14.7533 19.4482 14.6911 19.3044 14.6508C19.1216 14.5996 18.9317 14.6137 18.7494 14.5706C18.5514 14.5236 18.4419 14.3684 18.473 14.1887C18.5013 14.0251 18.6658 13.8974 18.8506 13.9105C20.0054 13.9911 20.8308 14.5687 20.9486 15.8841C20.957 15.9769 20.9667 16.0749 20.9455 16.1638C20.9088 16.3156 20.7925 16.3918 20.6791 16.3992C20.4299 16.4035 20.7925 16.3918 20.6791 16.3992Z" fill="white"/>
<path d="M20.8451 22.4999C21.02 22.4461 20.644 22.4388 20.8451 22.4999V22.4999Z" fill="white"/>
<path d="M18.0094 12.0307C18.008 12.0307 18.0067 12.0306 18.0053 12.0306C18.004 12.0305 18.0057 12.0306 18.0094 12.0307Z" fill="white"/>
<path d="M18.0059 12.0305C18.0079 12.0305 18.0099 12.0307 18.0119 12.0307C18.1458 12.0355 20.3232 12.0955 18.0059 12.0305Z" fill="white"/>
<path d="M21.6713 16.783C21.6617 16.6175 21.6673 16.813 21.6713 16.783V16.783Z" fill="white"/>
<path d="M20.1703 16.7245C20.1735 16.7243 20.1765 16.7226 20.1795 16.7223C20.171 16.7223 20.158 16.7225 20.1445 16.723C20.1533 16.7232 20.1612 16.7246 20.1703 16.7245Z" fill="white"/>
<path d="M20.1701 16.7222C20.161 16.7223 20.153 16.721 20.1443 16.7207C20.1006 16.7219 20.0555 16.7242 20.1701 16.7222Z" fill="white"/>
<path d="M20.1791 16.7223C20.176 16.7226 20.1729 16.7243 20.1699 16.7245C20.1935 16.7229 20.1915 16.7223 20.1791 16.7223Z" fill="white"/>
</g>
<defs>
<clipPath id="clip0">
<rect width="36" height="36" fill="white" transform="translate(0 0.399048)"/>
</clipPath>
</defs>
</svg>
