<svg width="200" height="76" viewBox="0 0 133 76" fill="none" xmlns="http://www.w3.org/2000/svg"><path d="M132.042 41.096a4.738 4.738 0 0 0-1.463-1.365c-.152-.085-.309-.162-.452-.26a3.154 3.154 0 0 0-1.696-.614 2.312 2.312 0 0 1-.58-.106 10.264 10.264 0 0 0-3.037-.457 1.225 1.225 0 0 1-.779-.267 5.6 5.6 0 0 0-2.078-.924 2.675 2.675 0 0 0-1.609.1c-.118.044-.239.084-.384.135l-.328-.58c.101-.128.171-.235.26-.326.212-.217.44-.419.646-.64a.499.499 0 0 0 .179-.335.495.495 0 0 0-.113-.362 2.34 2.34 0 0 1-.238-.458 2.094 2.094 0 0 1-.033-1.689c.113-.321.254-.633.422-.93.077-.122.173-.262.043-.414a.374.374 0 0 0-.403.142 1.15 1.15 0 0 1-.849.43c-.087.008-.171.036-.257.051-.537.094-1.05.105-1.427-.38-.012-.015-.037-.02-.069-.038-.501.047-.828.555-1.349.546-.355-.406-.4-.406-.799-.127-.472.347-.908.74-1.3 1.173a4.238 4.238 0 0 0-1.009 1.849 1.333 1.333 0 0 0 .157 1.11c.288.53.671 1.007 1.13 1.404.061.053.118.11.17.171a5.105 5.105 0 0 1-1.547 2.443 4.082 4.082 0 0 1-1.652.9c-.631.17-1.286.254-1.929.384a.483.483 0 0 1-.353-.014.47.47 0 0 1-.244-.25 1.917 1.917 0 0 0-.135-.22 3.414 3.414 0 0 0-1.345-1.288 1.593 1.593 0 0 1-.261-.209c.146-.16.256-.29.375-.41.563-.57 1.157-1.113 1.688-1.71.847-.953 1.68-1.92 2.47-2.92a59.834 59.834 0 0 0 2.228-3.025c.431-.646.913-1.258 1.442-1.83a25.018 25.018 0 0 1 1.889-2.094 15.516 15.516 0 0 1 4.148-2.44c.383-.157.776-.292 1.176-.404a1.79 1.79 0 0 1 1.486.172 2.51 2.51 0 0 0-.136.552.434.434 0 0 0 .185.309c.123.08.249-.024.342-.116.171-.19.296-.416.364-.662-.047-.072-.07-.142-.118-.175a2.584 2.584 0 0 0-1.786-.492 7.416 7.416 0 0 0-2.291.76 17.264 17.264 0 0 0-3.703 2.299c-.621.474-1.206.993-1.75 1.552-.174.19-.394.34-.579.521a7.2 7.2 0 0 0-.762.793c-.71.95-1.394 1.92-2.089 2.882-.215.297-.445.584-.647.89a4.05 4.05 0 0 1-.963 1.202c-.136.11-.253.24-.344.387a16.532 16.532 0 0 1-2.191 2.3c-.358.343-.77.634-1.118.986a1.321 1.321 0 0 1-.889.475.9.9 0 0 0-.428.157.878.878 0 0 0-.292.345c-.058.09-.109.186-.151.285a1.123 1.123 0 0 1-.615.634c-.566.28-1.123.58-1.695.848a9.762 9.762 0 0 1-1.863.611 7.77 7.77 0 0 1-1.887.194c-.984-.005-1.97.035-2.952-.008-1.616-.07-3.233-.163-4.845-.295-2.42-.199-4.847-.346-7.215-.93-.098-.025-.227-.012-.269-.188.082-.07.175-.154.272-.233a5.734 5.734 0 0 0 1.476-1.787c.4-.763.832-1.51 1.255-2.26.074-.12.155-.236.241-.348.344.022.676.13.964.315.287.185.521.44.679.74.225.442.425.895.66 1.332.233.436.477.87.75 1.282.24.348.557.638.927.85.37.212.784.34 1.21.374 1.148.17 2.313.197 3.468.081.548-.057.59-.094.596-.684a.449.449 0 0 1 .037-.12c.188-.107.398-.17.614-.182.362-.08.72-.178 1.077-.283a.355.355 0 0 0 .215-.14.343.343 0 0 0 .062-.246.895.895 0 0 1 .05-.218 10 10 0 0 1 1.752-.47c.206-.023.388-.064.457-.293a.287.287 0 0 1 .119-.149.302.302 0 0 1 .188-.046c.153-.008.306-.007.459-.013.171-.006.378.04.454-.164.059-.161-.081-.275-.186-.384-.03-.031-.058-.064-.09-.094a28.112 28.112 0 0 1-1.897-2.295 3.142 3.142 0 0 0-.836-.803c-.447-.22-.86-.5-1.225-.835a1.828 1.828 0 0 0-1.305-.286 1.27 1.27 0 0 1-.913-.161 1.228 1.228 0 0 1-.547-.733.418.418 0 0 1 .015-.315.43.43 0 0 1 .232-.218c.2-.087.412-.142.63-.164a7.825 7.825 0 0 0 2.972-.948 3.554 3.554 0 0 0 1.388-1.499c.14-.232.067-.394-.174-.532-.091-.052-.192-.088-.331-.15.13-.183.239-.34.352-.491.24-.308.412-.662.504-1.04.053-.23-.016-.336-.259-.443-.075-.032-.154-.054-.27-.095.105-.263.207-.498.291-.738a1.92 1.92 0 0 0 .196-1 4.496 4.496 0 0 1-.025-.891 13.467 13.467 0 0 0-.1-2.118 3.223 3.223 0 0 1 .243-2.065.957.957 0 0 0 .021-.361c-.522.087-.681.108-.824.268a2.988 2.988 0 0 1-1.182.664c-.663.28-1.327.558-1.973.87a7.488 7.488 0 0 1-1.728.59.727.727 0 0 1-.378-.024.421.421 0 0 0-.428.068c-.208.158-.406.327-.609.49-.11.088-.222.173-.342.266l-.266-.597a.97.97 0 0 0-.589.19c-.485.291-.938.63-1.353 1.011-.813.744-1.505 1.56-1.71 2.678a1.14 1.14 0 0 1-.058.184 2.352 2.352 0 0 0-.112 1.267c.059.261.032.534-.078.78-.11.245-.295.45-.53.586a1.882 1.882 0 0 1-.817-.652l-.027-.714c-.174.118-.115.37-.377.365-.063-.06-.144-.13-.216-.208-.409-.447-.81-.9-1.227-1.34-.098-.104-.261-.249-.366-.23-.394.075-.548-.188-.73-.423-.21-.273-.403-.561-.619-.831a.416.416 0 0 0-.472-.2l-.211.441a4.564 4.564 0 0 1-.73-.484 10.644 10.644 0 0 0-1.713-1.071 1.166 1.166 0 0 0-1-.065 1.47 1.47 0 0 0-.01.21c.094.896.212 1.79.28 2.688.061.793.095 1.591-.467 2.273a.665.665 0 0 0-.073.677c.061.16.147.31.221.465.135.21.222.447.255.694l-.524.184c-.058.698.495 1.174.555 1.788l-.507.303c.031.391.085.78.16 1.166.072.27.194.524.36.75.342.474.781.873 1.29 1.17.369.188.753.343 1.15.464.495.183 1.039.2 1.545.046.294-.085.587-.174.886-.242a1.13 1.13 0 0 1 .913.103c0 .062.01.088 0 .104-.622 1.058-1.227 2.128-1.882 3.167-.258.345-.55.665-.872.953a1.04 1.04 0 0 1-1.072.28 31.642 31.642 0 0 0-2.321-.421c-1.167-.179-2.354-.17-3.52-.367a45.357 45.357 0 0 0-2.728-.38 1.406 1.406 0 0 1-.985-.559 18.987 18.987 0 0 0-1.722-1.849 1.331 1.331 0 0 1-.146-.196.5.5 0 0 1 .05-.068c.094-.084.235-.15.272-.252.055-.152-.06-.275-.187-.378a11.646 11.646 0 0 0-2.763-1.822 5.702 5.702 0 0 0-2.886-.394 3.784 3.784 0 0 0-1.81.627c-.537.36-.97.85-1.254 1.425-.217.413-.507.79-.782 1.21-.752-.155-1.49-.266-2.201-.465-.926-.258-1.831-.586-2.745-.884a18.907 18.907 0 0 1-1.594-.575 12.284 12.284 0 0 0-3.408-.917 41.639 41.639 0 0 1-2.267-.345c-1.206-.21-2.41-.433-3.612-.657-1.526-.284-3.05-.573-4.575-.866a4.314 4.314 0 0 1-.502-.16.801.801 0 0 1 .105-.196A5.55 5.55 0 0 0 41.69 30c.157-.486.346-.964.523-1.453a.795.795 0 0 1 .543.456c.257.472.511.947.786 1.41a10.675 10.675 0 0 0 2.517 2.689c.135.11.287.196.45.257a12.46 12.46 0 0 0 3.007.631c.196.014.394.005.587-.027.52-.068 1.038-.154 1.558-.222a6.86 6.86 0 0 0 2.256-.648 12.914 12.914 0 0 0 2.087-1.211c.395-.305.791-.61 1.179-.924.162-.104.298-.245.396-.41.051-.226.07-.458.053-.69.28-.25.602-.537.92-.828a5.41 5.41 0 0 0 .556-.544.366.366 0 0 0 .045-.475c-.06-.08-.113-.163-.146-.21a4.13 4.13 0 0 1 1.12-1.14 3.78 3.78 0 0 0 .477-.439c.066-.097.12-.203.16-.313-.22-.046-.385-.074-.546-.116a.234.234 0 0 1-.152-.115.226.226 0 0 1-.013-.187c.119-.302.308-.572.553-.788.185-.183.384-.352.558-.544.07-.103.126-.214.167-.332l-.505-.278c.112-.287.191-.555.315-.802.559-1.117 1.104-2.243 1.958-3.187a.36.36 0 0 0 .066-.453c-.123-.007-.269-.023-.415-.022-1.114.01-2.233-.09-3.333.18a.3.3 0 0 1-.13-.007.769.769 0 0 1-.121-.05l-.259-.462c-.678-.253-1.234.098-1.856.242l-.079-.5a.788.788 0 0 0-.211-.01c-.981.265-1.928.587-2.528 1.48-.089.123-.191.236-.304.337a1.147 1.147 0 0 1-.26.194.658.658 0 0 1-.958-.358 1.274 1.274 0 0 1 .154-1.224 7.1 7.1 0 0 1 1.96-1.966 5.15 5.15 0 0 0 1.305-1.343c.38-.554.618-1.192.69-1.856a.645.645 0 0 0-.13-.607.61.61 0 0 1-.133-.709c.072-.268.172-.53.247-.799.072-.227.07-.47-.004-.696-.08-.235-.344-.247-.49-.428a4.82 4.82 0 0 1 0-1.522c.103-.488.048-.525-.44-.414a.564.564 0 0 1-.192-.038c.013-.358.024-.7.04-1.042.025-.557.06-1.114.08-1.671.007-.237.008-.476-.297-.578a.395.395 0 0 1-.19-.233c-.075-.224-.126-.455-.18-.685a13.478 13.478 0 0 0-.665-2.418 4.711 4.711 0 0 1-.224-.87c-.056-.251-.08-.51-.152-.757-.085-.291-.304-.351-.55-.18-.31.24-.633.458-.97.656a6.74 6.74 0 0 0-1.095.704c-.48.336-.986.637-1.512.9a1.103 1.103 0 0 1-.753.172.84.84 0 0 0-.672.19c-.242.183-.489.36-.72.555-.265.223-.515.463-.786.708-.643-.23-1.106.072-1.503.515-.23.257-.428.542-.644.811-.118.147-.182.348-.401.4l-.339-.539a1.622 1.622 0 0 0-.663.456 7.313 7.313 0 0 0-.52.58c-.15.184-.289.378-.414.58-.135.22-.247.454-.363.685-.113.223-.218.45-.36.745a5.58 5.58 0 0 0-.24-.542 1.286 1.286 0 0 0-.253-.23 4.58 4.58 0 0 0-.864 1.541 2.939 2.939 0 0 0 .045 2.141c.102.238.21.473.295.717.118.345.228.693.32 1.046a.926.926 0 0 1 .016.444 2.542 2.542 0 0 1-.871 1.406.836.836 0 0 1-.7.205.84.84 0 0 1-.596-.416 8.489 8.489 0 0 1-.39-.812c-.073-.154-.107-.35-.296-.403-.29-.083-.396-.312-.52-.54a6.293 6.293 0 0 0-.373-.602.509.509 0 0 0-.523-.2 1.085 1.085 0 0 0-.241.081c-.455-.57-.86-1.101-1.292-1.611-.31-.367-.556-.33-.812.086-.088.143-.167.291-.278.485-.154-.154-.284-.265-.39-.393a7.81 7.81 0 0 0-1.38-1.367 191.78 191.78 0 0 0-1.212-.88c-.247-.177-.39-.125-.47.169-.023.082-.033.169-.054.252l-.836 3.268a.561.561 0 0 0-.387.138.54.54 0 0 0-.182.363c-.04.188-.093.375-.12.565-.09.66-.162 1.321-.26 1.98-.014.3-.067.596-.157.883l-.623-.009a2.376 2.376 0 0 0-.08.39c-.025.707.004 1.415.087 2.118.082.467.109.942.078 1.415l-.568.103a.676.676 0 0 0-.058.211c.026.385.081.767.163 1.144.18.662.411 1.311.622 1.966.065.204.135.407.195.613.01.031-.024.075-.038.116-.159.094-.408.005-.527.276.06.25.11.546.204.828.075.201.173.394.292.574.428.7.864 1.393 1.293 2.09.026.06.043.123.051.187l-.354.341c.067.154.147.303.24.444a8.28 8.28 0 0 0 1.34 1.315 3.104 3.104 0 0 0 1.677.667c.63.077 1.27.046 1.89-.093a12.73 12.73 0 0 0 1.502-.455 5.714 5.714 0 0 0 2.086-1.414c.351-.352.714-.694 1.07-1.042.418-.41.973-.46 1.51-.544a.336.336 0 0 1 .271.093.322.322 0 0 1 .093.266 4.236 4.236 0 0 1-.18.747c-.118.345-.27.68-.402 1.02a.843.843 0 0 1-.43.537.702.702 0 0 0-.28.34c-.109.233-.177.483-.27.722a1.028 1.028 0 0 1-.172.335c-.673.715-1.462 1.118-2.496.91a125.501 125.501 0 0 0-3.48-.655c-1.4-.242-2.804-.466-4.21-.68-.842-.129-1.686-.273-2.535-.327a44.533 44.533 0 0 0-5.504-.039c-.72.044-1.44.092-2.16.144-.502.037-1.002.087-1.503.13-.283.024-.567.048-.85.07-.785.063-1.57.126-2.355.184a.448.448 0 0 1-.422-.105c.06-.07.124-.137.193-.198.514-.398 1.039-.783 1.545-1.19.372-.3.708-.642 1.084-.935a14.578 14.578 0 0 0 3.704-4.544c.059-.115.109-.235.15-.357.129-.342.261-.683.38-1.029.078-.222.142-.45.189-.68.083-.443.138-.892.22-1.335a9.346 9.346 0 0 0 .105-2.756 5.448 5.448 0 0 0-1.845-3.59 7.766 7.766 0 0 0-2.702-1.415 3.864 3.864 0 0 0-1.29-.2 5.576 5.576 0 0 0-3.535 1.175c-.289.23-.58.457-.884.667-.339.239-.63.536-.858.878-.367.535-.716 1.08-1.07 1.622a1.92 1.92 0 0 0-.31.905 4.222 4.222 0 0 0 .38 2.003 2.799 2.799 0 0 0 1.462 1.496c.219.095.454.147.693.155.608.027 1.026-.333 1.374-.758a1.452 1.452 0 0 0 .18-1.41.585.585 0 0 0-.269-.313.604.604 0 0 0-.412-.063.577.577 0 0 0-.282.21.56.56 0 0 0-.105.332.484.484 0 0 0 .137.283.502.502 0 0 0 .285.143c.064.015.147-.046.23-.075l-.231-.404c.223-.132.336-.052.383.117.076.204.084.426.023.635-.06.208-.187.393-.36.527-.39.31-.803.517-1.325.327a2.265 2.265 0 0 1-1.13-.838 3.782 3.782 0 0 1-.624-1.608c-.117-.62.018-1.26.375-1.782.267-.394.522-.794.796-1.182a6.39 6.39 0 0 1 2.102-1.809 7.369 7.369 0 0 1 1.97-.695c.468-.125.963-.11 1.422.04.62.21 1.241.42 1.849.66.24.102.46.244.651.42a6.817 6.817 0 0 1 1.81 2.495c.373.808.493 1.706.345 2.58-.083.421-.123.85-.198 1.272-.085.486-.154.977-.287 1.45a6.887 6.887 0 0 1-1.41 2.524c-.58.697-1.18 1.38-1.759 2.08a12.113 12.113 0 0 1-1.509 1.519c-.628.532-1.258 1.064-1.897 1.583a5.067 5.067 0 0 1-1.537.846c-.332.11-.656.24-.97.391-.214.107-.448.17-.688.185a28.07 28.07 0 0 1-5.696-.097 22.661 22.661 0 0 1-4.047-.795c-.063-.02-.127-.034-.19-.05a.406.406 0 0 0-.41.14.644.644 0 0 0-.177.471c.007.342.008.684.012 1.03.154.157.349.267.564.318.65.19 1.293.408 1.952.562 1.256.303 2.554.403 3.843.298.784-.068 1.569-.133 2.354-.192 1.745-.13 3.49-.25 5.236-.384 1.155-.088 2.3-.285 3.463-.29.436 0 .872-.059 1.308-.084.873-.052 1.746-.098 2.619-.148.219-.015.437.04.62.159a6.794 6.794 0 0 1 1.798 1.667c.617.86 1.163 1.766 1.634 2.71.196.358.366.728.51 1.109.122.366.224.737.307 1.114.286 1.168.487 2.355.603 3.55.018.15.02.301.004.45a.534.534 0 0 1-.288.362.556.556 0 0 1-.468.012 7.982 7.982 0 0 1-.814-.539 8.002 8.002 0 0 1-2.24-2.657 7.668 7.668 0 0 0-2.489-2.692 3.743 3.743 0 0 0-2.024-.672 5.89 5.89 0 0 0-3.317.852 12.809 12.809 0 0 0-3.022 2.446 3.887 3.887 0 0 0-.885 1.564c-.089.33.012.461.356.558.091.025.228-.027.26.158-.054.07-.112.16-.181.238-.46.517-.937 1.02-1.377 1.553-.301.365-.556.768-.82 1.161-.07.11-.12.23-.147.355a.44.44 0 0 0 .17.472c.048.035.103.06.161.075.112.038.272-.029.321.15-.5.727-1.008 1.45-1.5 2.184-.178.27-.336.553-.472.846-.182.389-.144.453.28.682.032.018.046.068.083.124a7.717 7.717 0 0 1-.88 1.482 19.85 19.85 0 0 0-1.95 2.972c-.09.196-.206.38-.346.545-.153.138-.32.261-.497.367l-.068.644c.23.198.52.32.825.347a.992.992 0 0 0 .448-.01c.964-.343 1.972-.357 2.977-.411.173-.003.345-.025.513-.064.589-.163 1.173-.344 1.76-.511.117-.033.25-.115.377.052a2.91 2.91 0 0 0-.127.268c-.099.269-.001.421.283.43.13.01.26-.004.385-.043a6.944 6.944 0 0 0 2.242-1.176c.283-.237.595-.437.93-.595a2.013 2.013 0 0 1 1.654-.09c.056.03.107.068.151.114l-.141.386a.949.949 0 0 1 .41.414c.09.176.12.376.088.57a3.519 3.519 0 0 1-.712 1.84 9.558 9.558 0 0 0-.904 1.26 4.295 4.295 0 0 0-.65 1.805c-.09.98.319 1.845.65 2.727a.309.309 0 0 0 .198.142c.102.015.205.018.307.008.04 1.004.099 1.964.547 2.808.36.123.425-.312.736-.292.023.254.06.485.061.717.03.582.21 1.147.527 1.64.151.267.283.304.592.206.118-.037.24-.065.38-.103.11.336.18.682.213 1.033.081.355.138.718.252 1.064.127.388.303.467.7.389.085-.017.165-.056.25-.074.32-.068.454-.008.568.277.087.22.14.452.226.672.15.38.303.759.477 1.128a.512.512 0 0 0 .193.256c.091.063.2.095.311.093a1.089 1.089 0 0 1 .757.329 6.588 6.588 0 0 1 1.59 1.708c.122.2.224.412.305.632.217-.814.774-1.364 1.228-1.952l.539.07 1.014-1.422c.087-.123.148-.305.267-.358.342-.153.43-.466.582-.745.164-.303.346-.598.495-.907a1.132 1.132 0 0 1 .736-.638c.063-.175.11-.318.165-.458a13.84 13.84 0 0 1 1.039-2.22c.065-.107.15-.263.245-.278.366-.058.453-.322.495-.6.084-.55.134-1.106.2-1.659.016-.142.04-.283.064-.448l.429.246c.067-.092.142-.153.162-.228a10.5 10.5 0 0 0 .43-2.143c.026-.514 0-1.024-.02-1.537a3.4 3.4 0 0 0-.425-1.666c-.221-.37-.423-.751-.645-1.121a5.13 5.13 0 0 1-.648-1.54 2.602 2.602 0 0 1-.043-.764c.084-1.004 1.498-1.375 2.083-1.168.309.108.604.252.878.428.527.346 1.021.74 1.545 1.09.345.227.704.432 1.075.616.244.122.426.015.488-.247.032-.137.047-.277.08-.473.172.109.293.19.419.265.299.177.592.368.904.52.216.102.446.175.683.217.286.054.46-.111.454-.395-.003-.187-.015-.373-.024-.606l.553.098c.28.05.557.12.839.148.13.03.266.017.387-.037a.597.597 0 0 0 .284-.26.732.732 0 0 1 .51-.372c.274-.074.552-.131.831-.181.413-.046.823-.115 1.227-.207.731-.219 1.445-.491 2.165-.745a.226.226 0 0 0 .129-.137.217.217 0 0 0-.025-.185c-.058-.09-.13-.172-.196-.257a5.261 5.261 0 0 1-.857-1.438 3.547 3.547 0 0 0-.58-.922c-.432-.566-.805-1.174-1.194-1.77a.762.762 0 0 1-.144-.356 1.388 1.388 0 0 0-.543-.92c-.322-.322-.647-.64-.955-.975a1.004 1.004 0 0 1-.347-.638c.047-.042.107-.099.17-.152.287-.24.328-.36.154-.653a3.61 3.61 0 0 0-.493-.677 9.13 9.13 0 0 0-.877-.77 1.473 1.473 0 0 1-.542-.684l.49.025a.375.375 0 0 0 .418-.183 1.325 1.325 0 0 0-.154-.24c-.559-.572-1.092-1.172-1.693-1.7a9.888 9.888 0 0 0-2.415-1.648 61.02 61.02 0 0 0-1.74-.754c-.483-.203-1-.32-1.526-.342-1.057-.045-2.045.104-2.9.789a1.831 1.831 0 0 0-.565.608c-.222.465-.429.937-.65 1.403-.138.313-.296.619-.472.913a.905.905 0 0 1-.465.368.925.925 0 0 1-.597.005c-.023-.171-.049-.336-.067-.502-.065-.597-.082-1.202-.2-1.789a20.76 20.76 0 0 0-1.95-5.72 7.07 7.07 0 0 0-1.24-1.729c-.292-.29-.595-.568-.882-.862-.11-.112-.27-.21-.258-.448.22-.003.413-.02.605-.006 1.068.08 2.139.15 3.204.26 1.718.178 3.436.367 5.15.584 1.692.214 3.368.533 5.042.857.13.015.257.052.374.11a6.117 6.117 0 0 1 1.53 1.193c.57.677 1.148 1.349 1.675 2.057.502.673.947 1.387 1.41 2.089a28.187 28.187 0 0 1 1.738 3.17c.557 1.142 1.04 2.318 1.54 3.485.306.712.598 1.43.87 2.153.502 1.332.803 2.72 1.173 4.089.296 1.1.581 2.201.855 3.307.276 1.103.574 2.203.793 3.318.33 1.644.512 3.312.544 4.987a8.964 8.964 0 0 1-.51 3.287c-.083.222-.137.454-.224.674a5.534 5.534 0 0 1-.413.942 5.438 5.438 0 0 1-1.727 1.9 2.643 2.643 0 0 1-2.004.347 1.93 1.93 0 0 1-.724-.279 1.89 1.89 0 0 1-.551-.54 7.11 7.11 0 0 1-.918-2.123 2.171 2.171 0 0 1 .156-1.386.685.685 0 0 1 .4-.404.273.273 0 0 1 .35.088c.098.138.174.292.269.433a.13.13 0 0 0 .117.025c.033-.011.08-.058.079-.088a1.075 1.075 0 0 0-.14-.489 1.1 1.1 0 0 0-.35-.374.49.49 0 0 0-.612.044 1.897 1.897 0 0 0-.448.542 2.333 2.333 0 0 0-.234 1.505 6.325 6.325 0 0 0 1.245 2.738c.18.247.443.424.743.5.404.094.813.17 1.224.229.306.035.616-.014.895-.144a4.752 4.752 0 0 0 1.984-1.534 8.102 8.102 0 0 0 1.227-2.545c.385-1.166.552-2.39.496-3.614-.038-.62-.059-1.243-.135-1.859-.132-1.065-.25-2.135-.467-3.185-.308-1.491-.685-2.97-1.058-4.447-.389-1.541-.8-3.078-1.216-4.612a28.201 28.201 0 0 0-1.267-3.45 46.497 46.497 0 0 0-2.584-5.49c-.54-.931-1.121-1.84-1.693-2.755a6.99 6.99 0 0 0-.564-.79c-.695-.828-1.404-1.645-2.104-2.469a.942.942 0 0 1-.101-.216.654.654 0 0 1 .625.221c.164.172.325.348.496.514a16.11 16.11 0 0 1 2.938 3.92c.164.35.349.691.552 1.022a19.498 19.498 0 0 1 1.82 3.633 48.37 48.37 0 0 1 1.05 2.708c.432 1.216.84 2.44 1.237 3.667.416 1.288.787 2.59 1.212 3.875.366 1.102.779 2.189 1.176 3.28.064.183.143.36.234.532a16.932 16.932 0 0 0 2.125 3.237c.594.688 1.273 1.3 2.023 1.821.488.336 1.073.51 1.669.497a6.718 6.718 0 0 0 1.803-.31c.314-.095.62-.21.92-.342.189-.08.189-.185.023-.407-.02-.026-.076-.027-.104-.035-.165.104-.34.194-.52.27-.68.24-1.392.383-2.114.425-.35.017-.7-.051-1.018-.199-.34-.15-.66-.338-.955-.56a11.96 11.96 0 0 1-2.694-3.052 23.169 23.169 0 0 1-2.19-5.02c-.355-1.06-.676-2.131-1.01-3.198-.322-1.025-.623-2.058-.967-3.076-.275-.815-.62-1.607-.9-2.42-.381-1.1-.87-2.156-1.35-3.214a37.504 37.504 0 0 0-.95-1.908c-.169-.324-.408-.614-.563-.943a15.98 15.98 0 0 0-1.882-2.936 15.219 15.219 0 0 0-1.4-1.532c-.098-.097-.267-.172-.196-.393.143.014.293.02.439.045.884.149 1.769.294 2.65.455 1.205.218 2.412.425 3.608.683 1.218.262 2.441.498 3.678.644.953.131 1.898.31 2.833.535.081.017.174.048.148.205-.085.053-.19.123-.3.186-.473.267-.93.56-1.37.877-1.434 1.045-2.072 2.505-2.337 4.17a.5.5 0 0 0 .106.493l.486.104-.393 2.786.457.174c.002.097.01.18.004.263-.03.45-.068.899-.093 1.348-.072 1.325.001 2.656-.196 3.975a.29.29 0 0 0 .01.063c.008.095.172.183.253.13a.614.614 0 0 0 .197-.164c.227-.343.53-.632.887-.845.456-.301.837-.699 1.117-1.164a1.24 1.24 0 0 1 .754-.56c.248-.086.517-.102.774-.046a.506.506 0 0 0 .567-.22 1.26 1.26 0 0 1 .168-.197.6.6 0 0 1 .49-.227.612.612 0 0 1 .478.252c.102.111.18.242.227.384.161.404.166.852.015 1.26-.147.357-.271.724-.41 1.085a2.934 2.934 0 0 0-.075 1.835c.14.543.362 1.061.658 1.54.249.405.567.764.94 1.063.323.257.65.51.986.749.1.052.207.087.319.105.173-.129.11-.375.313-.416.057.036.104.05.127.081a6.229 6.229 0 0 0 1.984 1.66c.349.202.428.166.57-.26.015-.047.073-.08.108-.117.047.02.091.048.13.08.585.74 1.46 1.078 2.238 1.548.261.158.389.102.521-.16.056-.111.104-.225.168-.365.124.066.22.11.31.166.501.306.99.635 1.502.92.778.391 1.526.838 2.238 1.336.342.26 1.334.795 1.42.704a2.685 2.685 0 0 1-.088-1.398c.11-.7.235-1.397.354-2.095.025-.144.053-.288.077-.417.514-.13.534-.16.42-.606-.02-.084-.052-.165-.068-.25a9.427 9.427 0 0 1-.202-2.374.645.645 0 0 0 .354-.28.625.625 0 0 0 .078-.44 12.765 12.765 0 0 0-.316-2.358 1.075 1.075 0 0 1-.062-.638l.446-.03c.05-.24.03-.489-.058-.718-.12-.345-.232-.694-.371-1.032a4.84 4.84 0 0 0-1.955-2.267c-.312-.198-.649-.36-.956-.564a1.716 1.716 0 0 1-.745-.923c.138-.122.269-.25.392-.386a.561.561 0 0 1 .761-.131c.332.165.66.336.993.498.231.12.47.228.712.324.224.081.38-.035.407-.277.013-.128.001-.258.014-.386.018-.11.041-.22.07-.329.231.051.418.108.609.131.302.036.607.058.911.07.1.01.2-.013.285-.065a.435.435 0 0 0 .181-.225.615.615 0 0 1 .425-.365 3.714 3.714 0 0 1 1.734-.263c.087.01.174.019.262.02.264.004.424-.168.333-.417a8.427 8.427 0 0 0-.436-.93c-.084-.164-.193-.315-.295-.478.066-.023.09-.042.106-.036a.784.784 0 0 1 .177.079c1.42.962 2.848 1.916 3.966 3.236.49.576 1.024 1.122 1.455 1.738.618.881 1.168 1.81 1.73 2.728.138.243.249.5.331.766.307.894.605 1.79.895 2.69.098.239.157.491.174.748-.018.707-.07 1.414-.14 2.118-.02.235-.1.462-.23.66a5.71 5.71 0 0 1-.886 1.03c-1.013.866-1.837.83-2.892.261a1.759 1.759 0 0 1-.87-1.011c-.147-.457-.078-.644.336-.925a1.213 1.213 0 0 1 .928-.224c.099.011.198.016.297.014.001-.068.01-.098 0-.106a.872.872 0 0 0-1.18-.099c-.09.06-.184.115-.282.164a.954.954 0 0 0-.422.438.929.929 0 0 0-.068.599 1.8 1.8 0 0 0 .26.69c.133.211.308.393.516.534.427.304.916.515 1.433.619.322.072.658.059.972-.04a3.674 3.674 0 0 0 1.953-1.441c.313-.464.52-.989.608-1.538a7.151 7.151 0 0 0 .181-1.782 9.193 9.193 0 0 0-.418-2.521c-.127-.365-.269-.726-.398-1.09-.026-.072-.09-.156.026-.238a.48.48 0 0 1 .156.066c.73.68 1.473 1.347 2.176 2.052.52.522 1.068 1.015 1.643 1.477.378.325.777.625 1.196.896.727.437 1.484.825 2.233 1.226.306.164.62.316.936.46.358.162.725.303 1.083.464 1.125.532 2.318.912 3.548 1.13a6.314 6.314 0 0 0 2.86-.076c.4-.116.76-.338 1.04-.643a.53.53 0 0 0 .153-.472 1.497 1.497 0 0 0-.575-.98.72.72 0 0 0-.364-.08c-.04-.003-.11.08-.119.13a.18.18 0 0 0 .072.16c.145.056.293.106.443.146-.023.131-.03.265-.02.397a.635.635 0 0 1-.066.438.654.654 0 0 1-.34.293 2.422 2.422 0 0 1-1.054.32 7.586 7.586 0 0 1-2.017-.201c-.813-.17-1.638-.3-2.432-.533a13.401 13.401 0 0 1-2.858-1.285 26.767 26.767 0 0 1-5.507-4.34 45.62 45.62 0 0 1-1.866-1.988c-.822-.919-1.614-1.863-2.435-2.783-.691-.774-1.282-1.633-2.056-2.336-.272-.247-.59-.448-.845-.71-.545-.527-1.142-.999-1.784-1.41-.063-.042-.176-.069-.084-.214.091.002.198-.003.304.007 1.263.114 2.529.208 3.788.354 1.238.142 2.47.334 3.704.512 1.406.203 2.811.418 4.228.54 1.742.15 3.486.29 5.23.42a7.324 7.324 0 0 1 2.996.878c1.605.876 3.231 1.713 4.812 2.633.481.25.978.47 1.488.658a33.003 33.003 0 0 0 5.493 1.728c.512.112 1.032.19 1.555.235 1.197.109 2.395.208 3.594.277a21.46 21.46 0 0 0 2.623.057 18.88 18.88 0 0 0 4.091-.874c.461-.136.911-.308 1.357-.486.426-.167.844-.355 1.251-.563a5.069 5.069 0 0 0 1.508-1.121c.368-.424.699-.88 1.029-1.334.462-.63.78-1.351.934-2.113a4.944 4.944 0 0 0 .028-2.044 5.985 5.985 0 0 0-.732-1.645 3.94 3.94 0 0 1-.4-.791c.222-.119.481-.153.727-.097 1.038.086 2.065.269 3.068.547l.045.302c.802.444 1.659.68 2.338 1.204.103.813.376 1.093 1.124 1.178a.596.596 0 0 0-.067-.769zm-58.045.018a.167.167 0 0 1-.06-.001.048.048 0 0 1-.02-.024l.07.006.01.019zm10.983.976c.002.006.005.01.006.017l-.375-.05.37.033zm35.127-4.286a1.695 1.695 0 0 1 1.326-.428 4.501 4.501 0 0 1 2.07.727c.069.064.13.136.184.213-.581.115-1.09.212-1.598.319-.489.102-.976.215-1.465.322a9.535 9.535 0 0 1-1.498.367.28.28 0 0 1 .052-.459c.209-.113.39-.27.531-.458.031-.053.37-.579.398-.603zm-5.893 2.152c.183-.266.366-.534.521-.815.144-.261.252-.541.395-.857.217.156.392.275.561.403.301.25.682.392 1.077.4.562 0 1.124.054 1.7.085a.26.26 0 0 1-.186.384c-.309.105-.624.194-.94.279-.968.26-1.938.515-2.906.775a1.6 1.6 0 0 1-.794.072c.131-.324.407-.486.572-.726zm-5.49 1.771c-.043.035-.087.097-.141.108a9.515 9.515 0 0 1-1.857.221c.107-.135.201-.236.274-.35.08-.124.071-.137-.047-.435-.233.078-.383.36-.672.302a1.579 1.579 0 0 1-.382-.07 3.256 3.256 0 0 1-.441-.32c.428-.52 1.004-.787 1.492-1.182 1.012.369 1.587.939 1.774 1.726zm-3.777-.3c.317.19.648.386.976.588.023.014.028.057.038.093-.849.174-1.715.253-2.582.235.243-.288.634-.511 1.568-.915zm-4.502 1.575c-.013.01-.03.034-.037.032a.529.529 0 0 1-.061-.031l.098-.002zm-.26-.04a.291.291 0 0 1 .081.028l-.079.015c-.02.003-.04.003-.06.004.019-.017.041-.049.058-.047zm-.492 2.077c-.776-.52-1.6-.968-2.46-1.339a1.076 1.076 0 0 1-.319-.211c1.355-.118 2.703-.006 4.046-.077 1.33-.07 2.66-.143 3.986-.26 1.346-.118 2.686-.291 4.04-.442.037.102.097.182.089.255a2.705 2.705 0 0 1-.914 1.922 4.856 4.856 0 0 1-2.671 1.11c-.823.11-1.654.147-2.484.108a6.268 6.268 0 0 1-.778-.088 6.407 6.407 0 0 1-2.535-.978zm25.338-5.129c.728 1.188.744 2.433.335 3.72a4.686 4.686 0 0 1-.64 1.333c-.327.456-.629.933-.989 1.361a4.598 4.598 0 0 1-1.494 1.134c-.883.428-1.799.788-2.74 1.076-1.295.401-2.628.671-3.979.807a3.95 3.95 0 0 1-1.044-.012 11.753 11.753 0 0 0-1.178-.049c-.501-.026-1.003-.052-1.502-.1a30.105 30.105 0 0 1-1.559-.201 3.266 3.266 0 0 1-.761-.182 6.536 6.536 0 0 0-1.201-.31c-.361-.076-.718-.17-1.077-.257l.02.048-.093-.031a.65.65 0 0 0 .07-.018c-.291-.084-.543-.298-.872-.252l-.006-.002c-.327-.264-.748-.298-1.125-.436-.676-.247-1.357-.482-2.032-.73a3.648 3.648 0 0 1-.438-.251 2.43 2.43 0 0 1 .475-.062c.939.066 1.882.017 2.808-.148a4.556 4.556 0 0 0 2.548-1.24c.292-.263.525-.582.684-.938.159-.355.241-.74.24-1.128.001-.107-.007-.214-.013-.36.131-.06.267-.111.406-.15 1.047-.22 2.103-.401 3.141-.653.742-.18 1.464-.44 2.19-.68.974-.322 1.944-.659 2.916-.987a1.73 1.73 0 0 1 .259-.045.68.68 0 0 1 .108.168c.271.997 1.501 1.427 2.301 1.321a.803.803 0 0 0 .598-.296.764.764 0 0 0 .151-.641.423.423 0 0 0-.316-.371.526.526 0 0 0-.522.192.167.167 0 0 0-.006.089c.006.03.019.057.038.08.073.043.149.08.227.113a.164.164 0 0 1 .054.209.162.162 0 0 1-.049.06.53.53 0 0 1-.227.114 1.887 1.887 0 0 1-1.618-.526.64.64 0 0 1-.155-.753 20.734 20.734 0 0 1 5.241-1.268c.133.17.264.312.366.472.163.254.302.523.46.78z" fill="#D8E8FF"/></svg>