<svg width="30" height="30" viewBox="0 0 30 30" fill="none" xmlns="http://www.w3.org/2000/svg"><g clip-path="url(#a)" fill="#fff"><path d="M20.41 19.25a.88.88 0 0 1-1.446 0 75.478 75.478 0 0 1-2.85-4.52c-1.972-3.4-2.93-5.764-2.93-7.23 0-.744.126-1.46.357-2.126a6.511 6.511 0 0 1 6.907-4.333A6.514 6.514 0 0 1 26.191 7.5c0 1.466-.958 3.83-2.93 7.23a75.478 75.478 0 0 1-2.85 4.52zm-.723-14.504A2.757 2.757 0 0 0 16.934 7.5a2.757 2.757 0 0 0 2.753 2.754A2.757 2.757 0 0 0 22.442 7.5a2.757 2.757 0 0 0-2.753-2.754zM.708 6.638C6.08 5.57 8.412 5.105 9.434 4.903v22.418L1.05 28.987A.88.88 0 0 1 0 28.125V7.5c0-.42.296-.78.708-.862z"/><path d="M20.566 21.235c.517-.183.971-.523 1.29-.986a77.155 77.155 0 0 0 2.925-4.636c1.244-2.145 3.168-5.65 3.168-8.113 0-.858-.131-1.685-.375-2.464l1.376-.273a.88.88 0 0 1 1.05.862V26.25c0 .42-.296.78-.708.862l-8.726 1.735v-7.612zM11.191 7.5c.172.034 0 0 0 0 .171.988.514 2.132 1.09 3.55 1.135 2.8 3.57 6.788 5.237 9.198.32.463.774.804 1.29.987v7.61l-7.617-1.523V7.5z"/></g><defs><clipPath id="a"><path fill="#fff" transform="matrix(-1 0 0 1 30 0)" d="M0 0h30v30H0z"/></clipPath></defs></svg>