<svg width="20" height="21" viewBox="0 0 20 21" fill="none" xmlns="http://www.w3.org/2000/svg"><path fill-rule="evenodd" clip-rule="evenodd" d="M10.155 5.955L1.207 1.048a.842.842 0 0 0-.804-.003.78.78 0 0 0-.295.277.72.72 0 0 0-.108.377v18.489a.72.72 0 0 0 .107.379.78.78 0 0 0 .294.277.843.843 0 0 0 .806-.002l4.336-2.378c.105-2.513 2.093-4.548 4.612-4.771V5.955zm5.54 3.038v3.904l2.372-1.301a.78.78 0 0 0 .29-.276.72.72 0 0 0 0-.75.78.78 0 0 0-.29-.276l-2.373-1.301z" fill="#fff"/><path fill-rule="evenodd" clip-rule="evenodd" d="M10.155 5.955L1.207 1.048a.842.842 0 0 0-.804-.003.78.78 0 0 0-.295.277.72.72 0 0 0-.108.377v18.489a.72.72 0 0 0 .107.379.78.78 0 0 0 .294.277.843.843 0 0 0 .806-.002l4.336-2.378c.105-2.513 2.093-4.548 4.612-4.771V5.955zm5.54 3.038v3.904l2.372-1.301a.78.78 0 0 0 .29-.276.72.72 0 0 0 0-.75.78.78 0 0 0-.29-.276l-2.373-1.301z" fill="url(#a)"/><path d="M17.676 4.72c-3.713-2.554-4.19-3.407-4.242-3.52l.006-.255-.267.031c-.802.092-1.084.635-1.124.947v13.812a4.174 4.174 0 0 0-1.954.02c-.867.211-1.62.669-2.119 1.288-.513.637-.7 1.362-.529 2.038.17 1.062 1.437 1.864 2.946 1.864a4.1 4.1 0 0 0 .992-.12c1.456-.357 2.328-1.433 2.463-2.607V5.036c.746.073 3.383.395 5.72 4.003l.43.663.002-.786c0-.099-.015-2.446-2.324-4.196z" fill="#fff"/><path d="M17.676 4.72c-3.713-2.554-4.19-3.407-4.242-3.52l.006-.255-.267.031c-.802.092-1.084.635-1.124.947v13.812a4.174 4.174 0 0 0-1.954.02c-.867.211-1.62.669-2.119 1.288-.513.637-.7 1.362-.529 2.038.17 1.062 1.437 1.864 2.946 1.864a4.1 4.1 0 0 0 .992-.12c1.456-.357 2.328-1.433 2.463-2.607V5.036c.746.073 3.383.395 5.72 4.003l.43.663.002-.786c0-.099-.015-2.446-2.324-4.196z" fill="url(#b)"/><defs><linearGradient id="a" x1="2.592" y1="-7.055" x2="18.776" y2="-5.052" gradientUnits="userSpaceOnUse"><stop stop-color="#C19332"/><stop offset="1" stop-color="#DAB045"/></linearGradient><linearGradient id="b" x1="9.156" y1="-7.055" x2="20.303" y2="-6.112" gradientUnits="userSpaceOnUse"><stop stop-color="#C19332"/><stop offset="1" stop-color="#DAB045"/></linearGradient></defs></svg>