<svg width="35" height="28" viewBox="0 0 35 28" fill="none" xmlns="http://www.w3.org/2000/svg"><path d="M27.983 17.43a8.267 8.267 0 0 1-6.19-2.875h-6.268c.764.42 1.464.945 2.082 1.56 1.888 1.879 3.134 4.95 2.322 7.583-.752 2.454-3.823 4.707-6.404 3.52-1.216-.56-2.174-1.9-2.002-3.282.168-1.355 1.615-2.355 2.905-1.764a1.431 1.431 0 0 1 .603 1.953 1.01 1.01 0 0 1-1.843-.211.531.531 0 0 1 .416-.715 1.077 1.077 0 0 0-.62.328c-.382.372-.29.975-.104 1.419a2.293 2.293 0 0 0 2.603 1.303 4.343 4.343 0 0 0 3.481-4.499c-.084-2.114-1.342-4.116-2.94-5.426a7.898 7.898 0 0 0-2.806-1.414c-1.02-.279-3.035-.235-3.035-.235l-9.245.044c0 .02-.2-1-.2-1l9.18.022c4.585-.294 8.577-2.965 9.058-7.342a4.34 4.34 0 0 0-3.302-4.633 2.33 2.33 0 0 0-2.697 1.12 1.464 1.464 0 0 0-.062 1.446c.15.223.382.379.645.437.017.007.032.002.052.007a.533.533 0 0 1-.4-.712c.524-1.55 2.655-.258 1.871 1.092-.786 1.352-2.461.868-3.225-.224-.814-1.16-.072-2.83.876-3.655 1.099-.955 2.575-.972 3.888-.493a5.584 5.584 0 0 1 2.962 2.605 5.87 5.87 0 0 1 .454 4.017 9.041 9.041 0 0 1-4.322 5.93c1.169.003 2.34.003 3.511.003l2.712-.003a8.237 8.237 0 0 1 12.332.283.627.627 0 0 1 .002.861 8.273 8.273 0 0 1-6.29 2.95zm-5.012-3.409a.07.07 0 0 1-.002.022 6.905 6.905 0 0 0 10.049.005 7.014 7.014 0 0 0-10.047-.027z" fill="#C19332"/></svg>