<svg width="24" height="23" viewBox="0 0 24 23" fill="none" xmlns="http://www.w3.org/2000/svg"><path d="M9.604 22.095V11.686H5.143c0-1.667.315-3.064.946-4.19.63-1.172 1.802-2.05 3.515-2.636V.399a10.86 10.86 0 0 0-3.92 1.284 10.658 10.658 0 0 0-3.042 2.433A11.413 11.413 0 0 0 .614 7.563c-.45 1.307-.653 2.704-.608 4.19v10.342h9.598zm14.396 0V11.686h-4.46c0-1.667.315-3.064.945-4.19.631-1.172 1.803-2.05 3.515-2.636V.399a10.86 10.86 0 0 0-3.92 1.284 10.657 10.657 0 0 0-3.042 2.433 11.412 11.412 0 0 0-2.027 3.447c-.45 1.307-.654 2.704-.608 4.19v10.342H24z" fill="#DBA059"/></svg>