<svg width="35" height="28" viewBox="0 0 35 28" fill="none" xmlns="http://www.w3.org/2000/svg"><path d="M6.762 17.712a8.264 8.264 0 0 0 6.19-2.876h6.268a9.31 9.31 0 0 0-2.082 1.56c-1.888 1.879-3.134 4.95-2.322 7.583.752 2.454 3.823 4.707 6.404 3.521 1.216-.56 2.173-1.9 2.002-3.283-.169-1.354-1.615-2.354-2.905-1.764a1.434 1.434 0 0 0-.603 1.953 1.01 1.01 0 0 0 1.843-.21.531.531 0 0 0-.417-.716c.238.037.456.153.62.328.383.372.29.975.105 1.42a2.293 2.293 0 0 1-2.603 1.302 4.344 4.344 0 0 1-3.481-4.499c.084-2.114 1.342-4.116 2.94-5.426a7.9 7.9 0 0 1 2.806-1.414c1.02-.279 3.034-.235 3.034-.235l9.246.044c0 .02.2-1 .2-1l-9.18.022c-4.585-.294-8.577-2.965-9.059-7.342a4.34 4.34 0 0 1 3.303-4.632 2.33 2.33 0 0 1 2.697 1.119 1.463 1.463 0 0 1 .062 1.446 1.05 1.05 0 0 1-.645.437c-.017.007-.032.002-.052.007a.533.533 0 0 0 .4-.712c-.524-1.55-2.655-.258-1.872 1.092.787 1.352 2.462.868 3.226-.223.814-1.162.072-2.832-.876-3.655-1.099-.956-2.575-.973-3.888-.494a5.584 5.584 0 0 0-2.962 2.605 5.87 5.87 0 0 0-.455 4.017 9.04 9.04 0 0 0 4.323 5.93 1363.115 1363.115 0 0 1-6.223 0A8.236 8.236 0 0 0 .474 13.9a.627.627 0 0 0-.002.861 8.274 8.274 0 0 0 6.29 2.95zm5.012-3.41c0 .008 0 .015.002.023a6.905 6.905 0 0 1-10.049.005 7.018 7.018 0 0 1 10.047-.028z" fill="#C19332"/></svg>