<svg width="35" height="28" viewBox="0 0 35 28" fill="none" xmlns="http://www.w3.org/2000/svg"><path d="M6.762 17.488a8.264 8.264 0 0 0 6.19-2.876h6.268a9.307 9.307 0 0 0-2.082 1.56c-1.888 1.88-3.134 4.95-2.322 7.584.752 2.453 3.823 4.706 6.404 3.52 1.216-.56 2.173-1.9 2.002-3.282-.169-1.355-1.615-2.355-2.905-1.764a1.432 1.432 0 0 0-.603 1.952 1.01 1.01 0 0 0 1.843-.21.531.531 0 0 0-.417-.715c.238.037.456.152.62.327.383.372.29.976.105 1.42a2.293 2.293 0 0 1-2.603 1.302 4.343 4.343 0 0 1-3.481-4.498c.084-2.114 1.342-4.117 2.94-5.427a7.903 7.903 0 0 1 2.806-1.414c1.02-.278 3.034-.235 3.034-.235l9.246.044c0 .02.2-1 .2-1l-9.18.022c-4.585-.294-8.577-2.965-9.059-7.342a4.34 4.34 0 0 1 3.303-4.632 2.33 2.33 0 0 1 2.697 1.119 1.463 1.463 0 0 1 .062 1.446 1.05 1.05 0 0 1-.645.437c-.017.008-.032.003-.052.008a.533.533 0 0 0 .4-.713c-.524-1.55-2.655-.258-1.872 1.092.787 1.353 2.462.869 3.226-.223.814-1.161.072-2.831-.876-3.655C20.912.38 19.436.362 18.123.841a5.584 5.584 0 0 0-2.962 2.606 5.87 5.87 0 0 0-.455 4.017 9.041 9.041 0 0 0 4.323 5.93 1443.372 1443.372 0 0 1-6.223 0 8.235 8.235 0 0 0-12.332.283.627.627 0 0 0-.002.86 8.273 8.273 0 0 0 6.29 2.951zm5.012-3.41c0 .008 0 .016.002.023a6.903 6.903 0 0 1-10.049.005 7.018 7.018 0 0 1 10.047-.027z" fill="#C19332"/></svg>