<svg width="30" height="30" viewBox="0 0 30 30" fill="none" xmlns="http://www.w3.org/2000/svg"><path d="M11.335 7.291a8.911 8.911 0 0 0 3.1 6.676v6.758a10.034 10.034 0 0 0-1.682-2.245c-2.026-2.036-5.338-3.379-8.177-2.504C1.93 16.786-.499 20.1.78 22.882c.605 1.31 2.05 2.344 3.54 2.159 1.461-.182 2.54-1.742 1.903-3.133a1.545 1.545 0 0 0-2.106-.65 1.089 1.089 0 0 0 .227 1.988.573.573 0 0 0 .77-.45 1.16 1.16 0 0 1-.352.67c-.402.411-1.052.312-1.53.111a2.473 2.473 0 0 1-1.405-2.806 4.683 4.683 0 0 1 4.85-3.754c2.28.09 4.44 1.448 5.852 3.17a8.52 8.52 0 0 1 1.525 3.026c.3 1.1.253 3.272.253 3.272l-.047 9.97c-.021 0 1.078.215 1.078.215l-.024-9.898c.317-4.944 3.198-9.25 7.917-9.768a4.68 4.68 0 0 1 4.996 3.56 2.512 2.512 0 0 1-1.207 2.91 1.578 1.578 0 0 1-1.56.066 1.133 1.133 0 0 1-.47-.696c-.009-.018-.004-.034-.009-.056a.575.575 0 0 0 .768.431c1.672-.565.278-2.863-1.177-2.018-1.458.849-.937 2.655.24 3.479 1.253.877 3.053.077 3.942-.945 1.03-1.185 1.049-2.777.532-4.192a6.021 6.021 0 0 0-2.809-3.195 6.33 6.33 0 0 0-4.332-.49 9.75 9.75 0 0 0-6.394 4.661 1501.638 1501.638 0 0 1 0-6.71A8.88 8.88 0 0 0 15.444.51a.676.676 0 0 0-.928-.003 8.923 8.923 0 0 0-3.181 6.783zm3.676 5.405c-.008 0-.016 0-.024.003a7.446 7.446 0 0 1-.005-10.837 7.567 7.567 0 0 1 .029 10.834z" fill="#C19332"/></svg>