<svg width="34" height="35" viewBox="0 0 34 35" fill="none" xmlns="http://www.w3.org/2000/svg"><path d="M17 34.199c9.279 0 16.8-7.522 16.8-16.8S26.28.599 17 .599C7.722.599.2 8.121.2 17.399s7.522 16.8 16.8 16.8z" fill="#466B9B"/><path d="M8.192 15.95l16.84-6.776c.782-.294 1.464.2 1.21 1.433l.002-.002-2.867 14.099c-.212 1-.781 1.242-1.578.771l-4.366-3.358-2.106 2.117c-.233.243-.43.448-.88.448l.31-4.637 8.092-7.63c.352-.324-.079-.506-.543-.184l-10.001 6.571-4.311-1.404c-.936-.31-.956-.976.198-1.447z" fill="#fff"/></svg>