<svg width="36" height="37" viewBox="0 0 36 37" fill="none" xmlns="http://www.w3.org/2000/svg"><g clip-path="url(#a)"><path d="M18 36.399c9.941 0 18-8.059 18-18s-8.059-18-18-18-18 8.059-18 18 8.059 18 18 18z" fill="#466B9B"/><path d="M28.747 12.558l-.007-.026c-.543-2.123-2.99-4.4-5.237-4.875l-.026-.005c-3.634-.67-7.32-.67-10.954 0l-.026.005c-2.247.474-4.694 2.752-5.238 4.875l-.006.026a20.087 20.087 0 0 0 0 8.937l.006.026c.52 2.032 2.786 4.206 4.95 4.803v2.37c0 .858 1.08 1.28 1.694.66l2.482-2.495a30.153 30.153 0 0 0 7.093-.457l.025-.006c2.247-.474 4.694-2.752 5.237-4.875l.007-.026a20.09 20.09 0 0 0 0-8.937zm-1.964 8.507c-.363 1.385-2.22 3.107-3.697 3.425-1.933.356-3.88.508-5.827.456a.14.14 0 0 0-.103.04l-1.812 1.8-1.927 1.914c-.141.142-.389.045-.389-.151v-3.926a.137.137 0 0 0-.114-.133c-1.477-.318-3.334-2.04-3.697-3.425a18.227 18.227 0 0 1 0-8.077c.363-1.385 2.22-3.107 3.696-3.425a28.001 28.001 0 0 1 10.173 0c1.477.318 3.334 2.04 3.697 3.425.604 2.68.604 5.397 0 8.077z" fill="#fff"/><path d="M21.513 23.299c-.248-.073-.485-.122-.705-.21-2.277-.914-4.373-2.093-6.033-3.901-.944-1.028-1.683-2.189-2.307-3.417-.296-.582-.546-1.187-.8-1.789-.232-.548.11-1.114.47-1.528a3.701 3.701 0 0 1 1.242-.903c.367-.17.73-.072.997.229.58.651 1.113 1.335 1.544 2.09.265.464.192 1.032-.288 1.348-.117.076-.223.167-.332.253a1.07 1.07 0 0 0-.251.256.68.68 0 0 0-.048.615c.592 1.576 1.591 2.801 3.23 3.462.263.105.527.228.829.194.506-.057.67-.594 1.025-.875.346-.274.79-.278 1.163-.05.373.23.736.475 1.095.723.354.244.705.482 1.031.76.314.267.422.617.245.98-.323.663-.793 1.215-1.47 1.567-.192.1-.421.132-.637.196-.248-.073.216-.064 0 0zM18.006 10.792c2.98.08 5.426 1.993 5.95 4.842.09.486.121.982.16 1.475.018.207-.104.404-.335.407-.239.002-.346-.191-.362-.398-.03-.41-.052-.822-.11-1.229-.308-2.146-2.078-3.922-4.286-4.303-.333-.058-.673-.073-1.01-.107-.212-.022-.49-.034-.538-.29-.04-.215.148-.386.359-.397.057-.003.115 0 .172 0 2.98.08-.057 0 0 0z" fill="#fff"/><path d="M22.532 16.47c-.005.035-.007.12-.03.2-.078.289-.532.325-.636.033a.84.84 0 0 1-.036-.278c0-.61-.138-1.22-.456-1.751a3.327 3.327 0 0 0-1.413-1.283 4.163 4.163 0 0 0-1.126-.334c-.17-.027-.34-.044-.512-.067-.206-.027-.317-.155-.307-.352.01-.185.149-.318.357-.306.683.037 1.344.18 1.951.492 1.236.633 1.942 1.632 2.148 2.967.01.06.025.12.03.181.011.15.018.3.03.497-.005.036-.012-.197 0 0z" fill="#fff"/><path d="M20.68 16.4c-.25.004-.383-.13-.41-.35-.017-.155-.031-.311-.07-.461a1.292 1.292 0 0 0-.493-.75 1.312 1.312 0 0 0-.403-.188c-.182-.051-.372-.037-.555-.08-.198-.047-.307-.203-.276-.382.028-.164.193-.292.378-.278 1.154.08 1.98.658 2.098 1.973.008.093.018.19-.004.28a.293.293 0 0 1-.266.235c-.25.005.114-.007 0 0zM20.845 22.5c.175-.054-.201-.061 0 0zM18.01 12.03h-.001zM18.006 12.03h.006c.134.006 2.311.066-.006 0zM21.671 16.783c-.01-.166-.004.03 0 0zM20.17 16.724l.01-.002-.035.001.025.002zM20.17 16.722l-.026-.001a.362.362 0 0 0 .026.001z" fill="#fff"/><path d="M20.18 16.722l-.01.002c.023-.001.021-.002.01-.002z" fill="#fff"/></g><defs><clipPath id="a"><path fill="#fff" transform="translate(0 .399)" d="M0 0h36v36H0z"/></clipPath></defs></svg>